<?xml version="1.0" encoding="UTF-8"?>
<svg version="1.1" xmlns="http://www.w3.org/2000/svg" width="600" height="600">
<path d="M0 0 C4.49786505 1.17801228 6.99066752 3.50266766 10 7 C12.01637938 10.74470456 12.19622044 13.78126054 12 18 C12.86625 17.938125 13.7325 17.87625 14.625 17.8125 C19.8919047 18.10510582 22.94269322 20.0806028 26.875 23.5 C29 26 29 26 29 29 C30.02867187 29.33837891 30.02867187 29.33837891 31.078125 29.68359375 C34.71506515 31.32216171 37.65869454 33.58549242 40.75 36.0625 C41.36907227 36.55709717 41.98814453 37.05169434 42.62597656 37.5612793 C62.47970129 53.63100203 74.44782488 73.95017757 79 99 C79.12375 100.81757813 79.12375 100.81757813 79.25 102.671875 C80.23829516 107.05743477 82.11734648 108.31783787 85.5625 111.125 C88.83326741 114.00885266 90.83457903 116.18089938 91.7265625 120.59765625 C91.6917236 123.79935124 91.49752679 126.83894592 91 130 C89.91160226 129.11032656 88.82955392 128.21288426 87.75 127.3125 C87.14671875 126.81363281 86.5434375 126.31476563 85.921875 125.80078125 C83.6890576 123.7086495 81.86460342 121.42150931 80 119 C79.68869141 120.8871875 79.68869141 120.8871875 79.37109375 122.8125 C74.43296834 150.9490377 60.3390145 174.16256811 37 191 C14.18346832 206.67351838 -11.82361521 214.41187915 -39.4375 214.25 C-41.41073242 214.26160156 -41.41073242 214.26160156 -43.42382812 214.2734375 C-51.80929561 214.25684083 -59.75243364 213.46563458 -68 212 C-73.44959258 211.22979408 -76.59589422 212.15141016 -81.5625 214.625 C-101.30725954 224.32498664 -135.54984126 232.15005291 -157 225 C-157.74765625 225.78246094 -158.4953125 226.56492187 -159.265625 227.37109375 C-160.26001154 228.3936233 -161.25482572 229.4157371 -162.25 230.4375 C-162.74113281 230.95376953 -163.23226563 231.47003906 -163.73828125 232.00195312 C-168.25148339 236.6054193 -168.25148339 236.6054193 -172 237 C-172.7425 237.185625 -173.485 237.37125 -174.25 237.5625 C-174.8275 237.706875 -175.405 237.85125 -176 238 C-175.34 239.32 -174.68 240.64 -174 242 C-177.63 245.63 -181.26 249.26 -185 253 C-188.97118217 251.01440892 -190.97837442 249.17270686 -194 246 C-194.763125 245.236875 -195.52625 244.47375 -196.3125 243.6875 C-196.869375 243.130625 -197.42625 242.57375 -198 242 C-196.59649895 246.91225366 -193.88188276 248.84597026 -190 252 C-189.34 253.32 -188.68 254.64 -188 256 C-191.63 259.63 -195.26 263.26 -199 267 C-200.65 266.34 -202.3 265.68 -204 265 C-204.12375 265.58265625 -204.2475 266.1653125 -204.375 266.765625 C-207.23627575 278.1391961 -216.14479079 292.73776333 -226.03613281 299.36401367 C-229.73087359 301.9561591 -231.71348053 303.69849321 -232.70703125 308.21166992 C-232.93239795 312.06672096 -232.89467289 315.8289218 -232.75 319.6875 C-232.74742187 321.00556641 -232.74484375 322.32363281 -232.7421875 323.68164062 C-232.9380388 330.34070945 -232.9380388 330.34070945 -230.35375977 336.1940918 C-221.95446542 342.63840051 -210.98582914 346.36928756 -201.20779419 350.14141846 C-166.80689025 363.45643221 -135.7383719 379.11152261 -119.49609375 414.25390625 C-114.7716629 425.74767086 -112.75803796 437.21160882 -112.5 449.5625 C-112.4693042 450.40756104 -112.4386084 451.25262207 -112.40698242 452.12329102 C-112.40570486 456.38482714 -112.67356832 459.15067348 -115.40625 462.52734375 C-118.75059461 465.71555179 -120.11921799 466.12497573 -124.5893755 466.12469864 C-125.56214146 466.12708959 -126.53490743 466.12948054 -127.53715116 466.13194394 C-128.61348945 466.12951145 -129.68982774 466.12707896 -130.79878235 466.12457275 C-131.93627448 466.1259829 -133.07376661 466.12739305 -134.24572819 466.12884593 C-137.41260803 466.13187435 -140.57945155 466.13046238 -143.74633014 466.12731338 C-147.15814959 466.12504729 -150.56996288 466.1285871 -153.98178101 466.13163757 C-159.1296675 466.13573165 -164.27754934 466.13796728 -169.42543747 466.13805357 C-179.54098565 466.13825608 -189.65648576 466.15070332 -199.77201843 466.16766357 C-201.36346428 466.17026941 -202.95491015 466.17286822 -204.54635602 466.1754601 C-206.95842274 466.17939862 -209.37048944 466.18334512 -211.78255609 466.18732132 C-220.88099579 466.20227403 -229.97943696 466.2158953 -239.07788086 466.22802734 C-240.32578931 466.22969769 -240.32578931 466.22969769 -241.59890803 466.23140177 C-255.0813508 466.24897782 -268.56376356 466.25184586 -282.04621587 466.25017694 C-295.88109676 466.24889853 -309.71586579 466.26661759 -323.5507037 466.30119491 C-332.08813782 466.32186527 -340.62530426 466.32716707 -349.16275265 466.3128666 C-355.01288298 466.30441644 -360.86280495 466.31411546 -366.71289126 466.3381761 C-370.0899284 466.35150304 -373.46605071 466.35392641 -376.84314919 466.34005547 C-380.50267715 466.32626861 -384.16082457 466.34298224 -387.82026672 466.36749268 C-389.42473592 466.35045961 -389.42473592 466.35045961 -391.06161863 466.33308244 C-397.01828764 466.37911747 -397.01828764 466.37911747 -402.04248333 469.38718796 C-402.68846383 470.24941593 -403.33444433 471.11164391 -404 472 C-405.2375 473.2065625 -405.2375 473.2065625 -406.5 474.4375 C-408.37640274 476.36081281 -409.93969984 478.19839337 -411.5625 480.3125 C-412.366875 481.199375 -413.17125 482.08625 -414 483 C-418 483 -418 483 -419.640625 481.53125 C-420.17171875 480.8609375 -420.7028125 480.190625 -421.25 479.5 C-422.47123006 477.97648527 -423.72853608 476.48185003 -425 475 C-425.70938721 473.98909302 -425.70938721 473.98909302 -426.43310547 472.95776367 C-429.51390256 469.1185049 -431.70849568 467.2325054 -436.64257812 466.34423828 C-440.97159686 466.07577453 -445.2926374 466.18051888 -449.625 466.3125 C-451.86388023 466.36443777 -454.10070259 466.40415415 -456.34017944 466.41410828 C-458.36597492 466.42517701 -460.39142052 466.47763358 -462.41650391 466.5324707 C-467.13585901 465.83122302 -468.66612309 464.3417265 -472 461 C-477.25321191 450.49357617 -472.44151959 431.69122101 -469 421 C-466.91914226 415.22344618 -464.5217187 409.59594881 -462 404 C-462.7734375 403.38898438 -463.546875 402.77796875 -464.34375 402.1484375 C-469.17312563 398.24232486 -473.03552265 393.75737282 -477 389 C-479.55771666 386.31111838 -482.14788299 383.87676417 -485 381.5 C-489.55891822 377.70090148 -493.30368964 373.62038796 -497 369 C-500.19830026 365.60795012 -500.19830026 365.60795012 -503.875 362.7734375 C-506.01746821 361.29617111 -507.49192497 360.13430958 -509 358 C-509.59346824 353.93422198 -509.41570178 350.07783647 -509 346 C-505.29955056 347.549832 -502.95418913 349.80394671 -500.13964844 352.63330078 C-499.67089294 353.10176422 -499.20213745 353.57022766 -498.71917725 354.05288696 C-497.17778568 355.59566695 -495.64359127 357.14539964 -494.109375 358.6953125 C-493.03935745 359.76906192 -491.96889619 360.84236933 -490.89801025 361.91525269 C-488.08568121 364.73520452 -485.27941111 367.56111154 -482.47436523 370.38830566 C-479.60894477 373.2742137 -476.73782832 376.15444257 -473.8671875 379.03515625 C-468.23920488 384.68456489 -462.61761116 390.34027825 -457 396 C-454.44413098 393.45612786 -451.91303826 390.90704549 -449.44921875 388.2734375 C-444.15343228 382.66131194 -438.66179743 377.71284673 -432.3125 373.3125 C-431.73910889 372.91015137 -431.16571777 372.50780273 -430.57495117 372.09326172 C-417.07308372 363.05133586 -402.16916684 356.76204768 -387.125 350.8125 C-368.83202501 344.92203763 -368.83202501 344.92203763 -354 334 C-353.18466038 329.32963895 -353.25928636 324.60826826 -353.1875 319.875 C-353.11724609 318.58078125 -353.04699219 317.2865625 -352.97460938 315.953125 C-352.82297888 308.61247263 -352.82297888 308.61247263 -356.10351562 302.27661133 C-358.64369026 300.02610159 -361.26943513 298.01213444 -364 296 C-382.48017595 277.35104269 -389.31242276 250.36738929 -389.3359375 224.99609375 C-389.34238242 223.34717194 -389.34911196 221.69825122 -389.35610962 220.04933167 C-389.36803186 216.60244096 -389.37179593 213.15565007 -389.37060547 209.70874023 C-389.37040313 205.34076306 -389.39763952 200.97344269 -389.43214989 196.60562038 C-389.45464372 193.20017189 -389.45843614 189.79487552 -389.45738602 186.38936043 C-389.45971089 184.78176689 -389.46835331 183.17416706 -389.48405075 181.56664848 C-389.74265186 152.33823006 -378.62370334 128.22201402 -359 107 C-352.89071038 101 -352.89071038 101 -350 101 C-356.33447452 93.37000348 -363.4084013 86.4785982 -370.4375 79.5 C-371.6584369 78.28408886 -372.87914192 77.06794484 -374.09960938 75.8515625 C-377.06374013 72.89835034 -380.03098958 69.94830602 -383 67 C-381.68 65.02 -380.36 63.04 -379 61 C-375.18796825 61.21783039 -374.1247942 61.86272638 -371.5 64.75 C-370.88125 65.56017578 -370.88125 65.56017578 -370.25 66.38671875 C-368.37657253 68.80461107 -366.18743115 70.86725463 -364 73 C-362.7934375 74.2375 -362.7934375 74.2375 -361.5625 75.5 C-359.0019495 78.07363115 -359.0019495 78.07363115 -356 80.4375 C-352.92096119 83.06751232 -350.54921599 85.8625034 -348 89 C-346.37055328 90.71002375 -344.69473381 92.35368715 -343 94 C-340.30643569 92.95250277 -337.67028223 91.84735288 -335.046875 90.6328125 C-311.51959477 79.87270567 -284.50297135 77.94324783 -259.95703125 86.73144531 C-249.97701425 90.45288692 -241.4157218 95.4860719 -233 102 C-232.20207031 102.61359375 -231.40414063 103.2271875 -230.58203125 103.859375 C-212.31430178 118.99087481 -200.03408007 142.60354963 -197 166 C-196.43200377 173.11013103 -196.39884495 180.24626129 -196.3125 187.375 C-196.27924699 189.28648053 -196.24475029 191.19793984 -196.20898438 193.109375 C-196.1250092 197.73946416 -196.05777735 202.36951288 -196 207 C-195.48050781 206.38511719 -194.96101563 205.77023437 -194.42578125 205.13671875 C-193.72839844 204.32847656 -193.03101563 203.52023437 -192.3125 202.6875 C-191.62800781 201.88699219 -190.94351562 201.08648437 -190.23828125 200.26171875 C-185.86706705 195.84473267 -182.13837104 194.60180108 -176 194 C-176.46792969 193.59136719 -176.93585938 193.18273437 -177.41796875 192.76171875 C-180.17002584 189.69708234 -180.65719044 186.02316127 -181 182 C-180.61003188 179.15276288 -179.89970734 176.74910576 -179 174 C-178.34 174 -177.68 174 -177 174 C-176.6596875 172.6078125 -176.6596875 172.6078125 -176.3125 171.1875 C-174.76919967 167.43948491 -173.53941962 166.76970981 -170 165 C-169.34 164.34 -168.68 163.68 -168 163 C-163.20086382 161.58848936 -157.63721075 161.24651121 -152.8125 162.625 C-149.39709774 165.21599482 -146.58497508 168.29007285 -145.1875 172.375 C-145.0946875 173.179375 -145.0946875 173.179375 -145 174 C-143.68 174.33 -142.36 174.66 -141 175 C-140.29993173 171.06211596 -140.35826465 169.01240691 -142.53515625 165.578125 C-143.94352516 163.7437177 -145.35522662 161.91186609 -146.76953125 160.08203125 C-160.56321847 141.02210267 -163.83376188 116.97686807 -160.38671875 94.10546875 C-156.61658969 74.52936936 -145.66648998 58.12741713 -132 44 C-131.28714844 43.26136719 -130.57429688 42.52273437 -129.83984375 41.76171875 C-107.09816136 19.80019699 -73.96251019 9.53490598 -42.95288086 9.79418945 C-40.67355273 9.81261273 -38.3946298 9.8146972 -36.11523438 9.81445312 C-24.93992843 9.85174085 -24.93992843 9.85174085 -20.15063477 10.60717773 C-16.99411339 11.36687115 -16.99411339 11.36687115 -14.890625 9.453125 C-14.34921875 8.72609375 -13.8078125 7.9990625 -13.25 7.25 C-12.69828125 6.53328125 -12.1465625 5.8165625 -11.578125 5.078125 C-11.05734375 4.39234375 -10.5365625 3.7065625 -10 3 C-6.90574306 -0.62076663 -4.73553996 -0.4082362 0 0 Z M-106 55 C-121.26786924 67.48582309 -134.19256548 83.36935717 -136.27050781 103.63867188 C-137.27386824 119.61396364 -135.36331359 134.51682843 -126 148 C-125.01 148.66 -124.02 149.32 -123 150 C-99.24 126.24 -75.48 102.48 -51 78 C-51.33 77.01 -51.66 76.02 -52 75 C-52.51005145 70.06671551 -52.76029306 66.241812 -50.125 61.9375 C-46.38214851 58.52490011 -43.39230075 58.67156936 -38.484375 58.70703125 C-35.02801166 59.11462127 -33.31336131 60.46276502 -31 63 C-29.14219847 66.71560306 -29.56571598 70.94455364 -30 75 C-31.4375 78 -31.4375 78 -34 80 C-35.38048337 80.27224291 -36.77135902 80.49389409 -38.16600037 80.68051147 C-43.9077689 81.88301462 -46.92624249 84.98182108 -50.90649414 89.11181641 C-51.63932617 89.84362625 -52.3721582 90.5754361 -53.12719727 91.329422 C-55.53016501 93.73724202 -57.90742276 96.16884231 -60.28515625 98.6015625 C-61.95227659 100.28174709 -63.62095564 101.9603864 -65.29112244 103.63754272 C-69.67147382 108.04455298 -74.03039178 112.47217991 -78.38513184 116.90447998 C-82.83706334 121.42816445 -87.30900928 125.93196715 -91.77929688 130.4375 C-100.53919941 139.2723563 -109.27658059 148.1291292 -118 157 C-117.71528336 157.5458223 -117.43056671 158.09164459 -117.13722229 158.65400696 C-116.76910934 159.37186874 -116.4009964 160.08973053 -116.02172852 160.8293457 C-115.65451187 161.540168 -115.28729523 162.2509903 -114.90895081 162.98335266 C-112.0769661 169.26654685 -115.05462937 176.6291142 -117.3125 182.6875 C-119.31916206 187.58748876 -121.59811904 192.28519663 -124 197 C-124 197.66 -124 198.32 -124 199 C-110.60788564 198.66895897 -97.46480981 194.85153462 -85.4375 189.125 C-79.09434435 186.15048659 -74.81595279 185.34993548 -68 187 C-36.79303521 192.29697166 -5.28519121 189.76407756 21.2578125 171.09765625 C37.18158256 158.91665266 50.64227494 143.35175426 54 123 C55.09632089 111.42024215 56.23230423 96.27211766 48.625 86.625 C47.75875 85.75875 46.8925 84.8925 46 84 C45.175 83.13375 44.35 82.2675 43.5 81.375 C41.06027477 78.98046261 41.06027477 78.98046261 38.4375 77 C35.87272538 74.89556954 34.03991363 72.60264843 32 70 C31.34 69.67 30.68 69.34 30 69 C30.33 68.401875 30.66 67.80375 31 67.1875 C32.20787988 64.94613529 32.20787988 64.94613529 32 62 C27.42613678 56.94904447 22.03930394 53.08389988 16 50 C16 50.99 16 51.98 16 53 C15.401875 53.268125 14.80375 53.53625 14.1875 53.8125 C12.00152146 54.99917406 10.58667406 56.09599113 9 58 C9 58.66 9 59.32 9 60 C8.401875 60.268125 7.80375 60.53625 7.1875 60.8125 C5.00152146 61.99917406 3.58667406 63.09599113 2 65 C2 65.66 2 66.32 2 67 C-0.52319336 67.94287109 -0.52319336 67.94287109 -4 68 C-6.943233 66.04429283 -9.22732157 63.48878939 -11.62890625 60.9140625 C-12.69708839 59.81679337 -12.69708839 59.81679337 -13.78684998 58.69735718 C-16.06264233 56.35586583 -18.31385442 53.99255163 -20.5625 51.625 C-22.81715356 49.26726146 -25.07669744 46.9149385 -27.34886169 44.57406616 C-28.76210114 43.11658825 -30.16494222 41.6489393 -31.55604553 40.1703186 C-32.19698654 39.50648163 -32.83792755 38.84264465 -33.49829102 38.15869141 C-34.05533218 37.57165436 -34.61237335 36.98461731 -35.18629456 36.37979126 C-51.65498544 23.85109989 -92.633187 44.77495928 -106 55 Z M-324 113 C-322.63676257 115.0399719 -322.63676257 115.0399719 -321 117 C-320.34 117 -319.68 117 -319 117 C-318.5978125 117.8971875 -318.5978125 117.8971875 -318.1875 118.8125 C-317.00082594 120.99847854 -315.90400887 122.41332594 -314 124 C-313.34 124 -312.68 124 -312 124 C-311.6596875 124.8353125 -311.6596875 124.8353125 -311.3125 125.6875 C-309.00869928 129.74657746 -305.5915337 132.51937887 -302 135.4375 C-298.92096119 138.06751232 -296.54921599 140.8625034 -294 144 C-290.7781842 147.52733662 -290.7781842 147.52733662 -286.8125 150.0625 C-284.44064497 151.28932157 -284.08663282 152.60940779 -283 155 C-281.5833253 156.7511573 -281.5833253 156.7511573 -280 158 C-279.34 158 -278.68 158 -278 158 C-277.731875 158.598125 -277.46375 159.19625 -277.1875 159.8125 C-276.00082594 161.99847854 -274.90400887 163.41332594 -273 165 C-272.34 165 -271.68 165 -271 165 C-270.773125 165.556875 -270.54625 166.11375 -270.3125 166.6875 C-268.00869928 170.74657746 -264.5915337 173.51937887 -261 176.4375 C-257.92096119 179.06751232 -255.54921599 181.8625034 -253 185 C-249.7781842 188.52733662 -249.7781842 188.52733662 -245.8125 191.0625 C-243.44064497 192.28932157 -243.08663282 193.60940779 -242 196 C-240.5833253 197.7511573 -240.5833253 197.7511573 -239 199 C-238.34 199 -237.68 199 -237 199 C-239.43003208 203.73856256 -239.43003208 203.73856256 -241.87288284 204.85906887 C-244 205 -244 205 -245.85090256 203.76433659 C-246.4887833 203.12184688 -247.12666405 202.47935717 -247.78387451 201.81739807 C-248.52140457 201.08674133 -249.25893463 200.35608459 -250.01881409 199.60328674 C-250.81794724 198.78617722 -251.61708038 197.96906769 -252.44042969 197.12719727 C-253.28957443 196.27878265 -254.13871918 195.43036804 -255.01359558 194.5562439 C-257.34278108 192.22416691 -259.66030485 189.88152857 -261.97340679 187.5335629 C-264.39214201 185.08362065 -266.8249963 182.64778362 -269.25640869 180.21043396 C-273.8598111 175.59147645 -278.45031779 170.95991877 -283.03636193 166.32373327 C-288.25744825 161.04680529 -293.49269974 155.78402853 -298.72920752 150.52241051 C-309.50201238 139.69730975 -320.25683042 128.85451718 -331 118 C-332.09707275 118.61174072 -333.19414551 119.22348145 -334.32446289 119.85375977 C-334.94156631 120.19786392 -335.55866974 120.54196808 -336.19447327 120.89649963 C-350.72185783 129.77533476 -359.25090865 147.61955027 -363.25 163.5 C-365.48852274 175.72084863 -365.18629975 188.27127263 -365.18530273 200.64526367 C-365.18748306 203.66404463 -365.20568248 206.68245548 -365.22460938 209.70117188 C-365.25181164 218.83155034 -365.11518913 227.87718676 -364.12890625 236.9609375 C-364.0532695 237.6631694 -363.97763275 238.36540131 -363.89970398 239.08891296 C-361.26595779 260.42817871 -349.60026051 277.29341194 -333.0625 290.3125 C-331 292 -331 292 -330 294 C-329.88538364 295.45785278 -329.83062374 296.92064985 -329.80712891 298.3828125 C-329.78303452 299.74563354 -329.78303452 299.74563354 -329.75845337 301.13598633 C-329.71383367 305.31802595 -329.672885 309.49990624 -329.64990234 313.68212891 C-329.63340747 315.87982826 -329.60620402 318.07747541 -329.56787109 320.27490234 C-329.51271341 323.4543829 -329.49116266 326.63260342 -329.4765625 329.8125 C-329.45389313 330.78268066 -329.43122375 331.75286133 -329.40786743 332.75244141 C-329.43264178 340.86932399 -331.92946194 347.03679006 -336.89453125 353.4453125 C-341.32687998 357.32700284 -346.00944653 360.22018737 -351.28125 362.81640625 C-351.97889969 363.16233322 -352.67654938 363.50826019 -353.39533997 363.8646698 C-360.30868137 367.2390118 -367.39206108 370.12542754 -374.5402832 372.95819092 C-401.58900197 383.37349383 -401.58900197 383.37349383 -425 400 C-425.85722656 400.77988281 -426.71445312 401.55976563 -427.59765625 402.36328125 C-437.78487136 412.01037892 -442.82832841 422.49278169 -446 436 C-445.67 436.66 -445.34 437.32 -445 438 C-440.74802643 434.54177504 -440.74802643 434.54177504 -436.9375 430.625 C-435.9784375 429.820625 -435.9784375 429.820625 -435 429 C-432.25 429.25 -432.25 429.25 -430 430 C-429.9175 428.948125 -429.835 427.89625 -429.75 426.8125 C-428.92922905 422.64024768 -427.92526141 421.00884031 -425 418 C-424.4225 417.401875 -423.845 416.80375 -423.25 416.1875 C-418.84770054 413.86406418 -414.28738615 414.71391419 -409.625 415.75 C-406.61980696 417.18104431 -406.11001632 417.94745511 -405 421 C-404.34 421.99 -403.68 422.98 -403 424 C-402.46083854 426.6602023 -402.26629902 429.29262663 -402 432 C-401.29875 432.12375 -400.5975 432.2475 -399.875 432.375 C-395.44689634 433.33763123 -390.84023865 434.53127515 -387 437 C-385.8125 439.0625 -385.8125 439.0625 -385 441 C-383.05060719 442.94939281 -380.07957098 442.12301685 -377.48467869 442.12908131 C-376.53820014 442.12616847 -375.5917216 442.12325563 -374.61656189 442.12025452 C-373.61932069 442.12110894 -372.62207949 442.12196337 -371.59461886 442.12284368 C-368.22574046 442.1245015 -364.85691098 442.1189722 -361.48803711 442.11352539 C-359.0839793 442.11324356 -356.67992141 442.11340118 -354.27586365 442.1139679 C-349.08605914 442.11419621 -343.89626585 442.11134488 -338.70646477 442.10573006 C-331.20280211 442.09761714 -323.69914555 442.09500005 -316.19547898 442.09374207 C-304.02248711 442.09155122 -291.84950192 442.08489024 -279.67651367 442.07543945 C-267.84871453 442.06626618 -256.02091721 442.05918494 -244.19311523 442.05493164 C-243.10026894 442.05453756 -243.10026894 442.05453756 -241.98534494 442.05413551 C-238.3305022 442.05283051 -234.67565945 442.05156679 -231.02081668 442.05032361 C-200.68053967 442.03994997 -170.34027076 442.02225664 -140 442 C-140.14807828 440.40078755 -140.29952602 438.80188685 -140.45239258 437.203125 C-140.53636795 436.31270508 -140.62034332 435.42228516 -140.7068634 434.50488281 C-142.50390253 419.14899592 -152.35571709 406.13448301 -164.0625 396.6875 C-180.05842755 385.24486866 -198.32084155 377.95286088 -216.57836914 370.98364258 C-247.54517662 359.09498133 -247.54517662 359.09498133 -254.5625 345.9375 C-257.05929165 339.37316514 -256.82971642 331.93905594 -257 325 C-257.67200439 325.30736084 -258.34400879 325.61472168 -259.03637695 325.93139648 C-262.5802565 326.01343208 -262.96151386 325.51071277 -265.47338867 323.17602539 C-266.80346442 321.83145221 -268.1173776 320.47076994 -269.41796875 319.09765625 C-270.46565178 318.03012367 -270.46565178 318.03012367 -271.53450012 316.94102478 C-273.76675103 314.66188722 -275.97774535 312.36343793 -278.1875 310.0625 C-280.41129463 307.7686948 -282.63926017 305.47916522 -284.87263489 303.19468689 C-286.26239038 301.77084622 -287.64593455 300.34091258 -289.02275085 298.90455627 C-289.95931267 297.93871864 -289.95931267 297.93871864 -290.91479492 296.95336914 C-291.73822639 296.09612999 -291.73822639 296.09612999 -292.57829285 295.22157288 C-293.9404195 293.78276556 -293.9404195 293.78276556 -296 294 C-294.05871144 288.17613433 -288.59143117 284.82619264 -284 281 C-279.71 285.29 -275.42 289.58 -271 294 C-269.74602647 291.87872544 -269.74602647 291.87872544 -270.0625 288.6875 C-269.9594788 282.60924914 -267.74446094 279.07215608 -263.76953125 274.65234375 C-260.41444471 271.51944837 -256.64049751 269.01996595 -251.93359375 268.984375 C-250 269.25 -250 269.25 -247 270 C-245.74763156 267.89686209 -245.74763156 267.89686209 -246.125 264.8125 C-245.89900931 257.91978385 -243.68698266 254.33620815 -238.875 249.625 C-234.25779727 245.69772412 -230.98854157 245 -225 245 C-224.7226499 241.81509993 -224.7226499 241.81509993 -227 239 C-226.195625 238.319375 -225.39125 237.63875 -224.5625 236.9375 C-219.79815264 231.47593108 -220.84048883 223.83016393 -220.83203125 216.88671875 C-220.82870285 215.91829544 -220.82537445 214.94987213 -220.82194519 213.95210266 C-220.81689731 211.90386425 -220.8145362 209.85561767 -220.81469727 207.80737305 C-220.81253371 204.73536842 -220.79441881 201.663737 -220.77539062 198.59179688 C-220.74827388 189.35511494 -220.87262263 180.20101467 -221.875 171.01171875 C-221.95116043 170.31044357 -222.02732086 169.6091684 -222.10578918 168.88664246 C-224.19488571 152.0447939 -232.11743102 137.88256898 -244 126 C-244.63679687 125.36320312 -245.27359375 124.72640625 -245.9296875 124.0703125 C-267.63454748 103.80643908 -297.63475214 102.20672666 -324 113 Z M-164 179 C-163.67 179.99 -163.34 180.98 -163 182 C-162.34 181.67 -161.68 181.34 -161 181 C-161 180.34 -161 179.68 -161 179 C-161.99 179 -162.98 179 -164 179 Z M-149 190 C-151.37015245 192.65484449 -151.37015245 192.65484449 -152 196 C-151.34 196 -150.68 196 -150 196 C-149.34 194.02 -148.68 192.04 -148 190 C-148.33 190 -148.66 190 -149 190 Z M-170 197 C-169.34 197.66 -168.68 198.32 -168 199 C-167.67 198.34 -167.34 197.68 -167 197 C-167.99 197 -168.98 197 -170 197 Z M-168 201 C-168.33 201.66 -168.66 202.32 -169 203 C-168.34 203 -167.68 203 -167 203 C-167.33 202.34 -167.66 201.68 -168 201 Z M-231 262 C-230 264 -230 264 -230 264 Z M-254 285 C-254.33 286.32 -254.66 287.64 -255 289 C-254.01 289 -253.02 289 -252 289 C-251.34 288.34 -250.68 287.68 -250 287 C-251.32 286.34 -252.64 285.68 -254 285 Z " fill="#000000" transform="translate(509,62)"/>
<path d="M0 0 C4.00934382 2.40560629 6.99369872 5.55646945 9.5 9.5 C10.06187646 12.12701888 9.89377804 13.79980771 9.5 16.5 C10.46099609 16.59474609 10.46099609 16.59474609 11.44140625 16.69140625 C17.46527282 17.54426366 21.10664572 18.94818693 25.1484375 23.57421875 C27.24230346 26.55767516 28.11140077 28.87307382 28.5 32.5 C26.90936701 38.86253195 22.97214207 42.95212767 17.5 46.5 C14.7421875 47.1953125 14.7421875 47.1953125 12.5 47.5 C12.73678467 48.07451904 12.97356934 48.64903809 13.2175293 49.2409668 C13.5 51.5 13.5 51.5 12.11645508 53.53051758 C11.42447021 54.22814209 10.73248535 54.9257666 10.01953125 55.64453125 C8.8912793 56.78245117 8.8912793 56.78245117 7.74023438 57.94335938 C6.93908203 58.72517578 6.13792969 59.50699219 5.3125 60.3125 C4.53068359 61.11365234 3.74886719 61.91480469 2.94335938 62.74023438 C2.18474609 63.49240234 1.42613281 64.24457031 0.64453125 65.01953125 C-0.40190552 66.05750854 -0.40190552 66.05750854 -1.46948242 67.11645508 C-3.5 68.5 -3.5 68.5 -5.60668945 68.3581543 C-8.5420555 67.02768213 -10.3175959 64.84209221 -12.5 62.5 C-13.7375 61.2934375 -13.7375 61.2934375 -15 60.0625 C-17.5 57.5 -17.5 57.5 -19.9375 54.5 C-22.56751232 51.42096119 -25.3625034 49.04921599 -28.5 46.5 C-30.18711423 44.8540349 -31.8545622 43.18762851 -33.5 41.5 C-34.799375 40.200625 -34.799375 40.200625 -36.125 38.875 C-36.90875 38.09125 -37.6925 37.3075 -38.5 36.5 C-39.11875 35.984375 -39.7375 35.46875 -40.375 34.9375 C-41.5 33.5 -41.5 33.5 -41.28637695 31.65551758 C-39.70930662 27.33265078 -35.89033128 24.37912277 -32.6875 21.1875 C-31.96240234 20.43404297 -31.23730469 19.68058594 -30.49023438 18.90429688 C-29.78576172 18.19724609 -29.08128906 17.49019531 -28.35546875 16.76171875 C-27.71246826 16.11162842 -27.06946777 15.46153809 -26.40698242 14.79174805 C-25.77767822 14.36547119 -25.14837402 13.93919434 -24.5 13.5 C-23.18 13.83 -21.86 14.16 -20.5 14.5 C-19.51 11.86 -18.52 9.22 -17.5 6.5 C-16.84 6.5 -16.18 6.5 -15.5 6.5 C-15.2525 5.901875 -15.005 5.30375 -14.75 4.6875 C-11.27770391 -1.38901816 -6.43078338 -1.28615668 0 0 Z M-2.5 27.5 C-4.61683841 28.39163577 -4.61683841 28.39163577 -6.5 29.5 C-4.025 31.48 -4.025 31.48 -1.5 33.5 C-1.17 31.85 -0.84 30.2 -0.5 28.5 C-1.16 28.17 -1.82 27.84 -2.5 27.5 Z " fill="#000000" transform="translate(511.5,476.5)"/>
<path d="M0 0 C3.25877873 2.50194144 6.15115223 5.30230446 8 9 C8.06950541 10.54023996 8.08452357 12.08334988 8.0625 13.625 C8.05347656 14.44226563 8.04445312 15.25953125 8.03515625 16.1015625 C8.02355469 16.72804688 8.01195312 17.35453125 8 18 C8.886875 17.79375 9.77375 17.5875 10.6875 17.375 C14.49750977 16.94367814 15.74100375 17.01280717 19 19 C22.83729291 22.5018366 25.57176854 25.62014309 27.125 30.625 C26.97855525 34.57900819 26.20742181 36.72692628 24 40 C21.875 41.1875 21.875 41.1875 20 42 C19.67 42.99 19.34 43.98 19 45 C16 46.125 16 46.125 13 47 C12.67 47.33 12.34 47.66 12 48 C12.33 48.66 12.66 49.32 13 50 C11.38405168 52.04119788 9.7143618 54.04072937 8 56 C7.34 56 6.68 56 6 56 C5.773125 56.556875 5.54625 57.11375 5.3125 57.6875 C3.63281165 60.6469509 1.45866715 62.66126784 -1 65 C-1.495 65.61875 -1.99 66.2375 -2.5 66.875 C-4 68 -4 68 -6.375 68 C-10.92830918 66.26540603 -13.42608896 62.70635205 -16.4375 59 C-19.06751232 55.92096119 -21.8625034 53.54921599 -25 51 C-26.68711423 49.3540349 -28.3545622 47.68762851 -30 46 C-30.825 45.195625 -31.65 44.39125 -32.5 43.5625 C-34.33326175 41.68340671 -35.97951165 39.84226407 -37.625 37.8125 C-39.87722335 34.88119654 -39.87722335 34.88119654 -43 33 C-41.5735422 29.7413364 -39.83295838 27.5975146 -37.3046875 25.109375 C-36.23154297 24.04589844 -36.23154297 24.04589844 -35.13671875 22.9609375 C-34.39035156 22.23132813 -33.64398438 21.50171875 -32.875 20.75 C-32.12089844 20.00492188 -31.36679688 19.25984375 -30.58984375 18.4921875 C-28.73099228 16.6568658 -26.86762995 14.8263809 -25 13 C-23.35 13.66 -21.7 14.32 -20 15 C-20.144375 14.175 -20.28875 13.35 -20.4375 12.5 C-19.78261192 7.2608954 -16.80211702 4.49059903 -13 1 C-8.93087498 -1.60841347 -4.51093731 -1.63724001 0 0 Z M-3 27 C-4.65 27.33 -6.3 27.66 -8 28 C-6.35 29.98 -4.7 31.96 -3 34 C-2.06576355 30.98968256 -1.95550089 30.13349732 -3 27 Z " fill="#000000" transform="translate(99,63)"/>
<path d="M0 0 C3.76630271 1.25543424 4.59441394 2.88688863 7 6 C8.6454378 7.68762851 10.31288577 9.3540349 12 11 C12.804375 11.825 13.60875 12.65 14.4375 13.5 C17.00940708 16.08280067 17.00940708 16.08280067 20.0625 18.5 C22.81245111 20.84038392 24.7982897 23.15908348 27 26 C28.6454378 27.68762851 30.31288577 29.3540349 32 31 C32.804375 31.825 33.60875 32.65 34.4375 33.5 C36.9980505 36.07363115 36.9980505 36.07363115 40 38.4375 C43.07903881 41.06751232 45.45078401 43.8625034 48 47 C49.6459651 48.68711423 51.31237149 50.3545622 53 52 C53.804375 52.825 54.60875 53.65 55.4375 54.5 C58.00940708 57.08280067 58.00940708 57.08280067 61.0625 59.5 C63.81245111 61.84038392 65.7982897 64.15908348 68 67 C69.6454378 68.68762851 71.31288577 70.3540349 73 72 C73.804375 72.825 74.60875 73.65 75.4375 74.5 C78.00940708 77.08280067 78.00940708 77.08280067 81.0625 79.5 C83.81245111 81.84038392 85.7982897 84.15908348 88 87 C90.4155178 89.53939051 92.79899388 91.84311718 95.5625 94 C98.14477053 96.11878607 99.94890086 98.37202922 102 101 C103.6454378 102.68762851 105.31288577 104.3540349 107 106 C107.804375 106.825 108.60875 107.65 109.4375 108.5 C111.9980505 111.07363115 111.9980505 111.07363115 115 113.4375 C118.07903881 116.06751232 120.45078401 118.8625034 123 122 C124.6459651 123.68711423 126.31237149 125.3545622 128 127 C129.2065625 128.2375 129.2065625 128.2375 130.4375 129.5 C132.98865279 132.07498072 132.98865279 132.07498072 136 134.375 C139.3859415 137.33769881 141.51327767 140.2699165 144 144 C142.35 145.65 140.7 147.3 139 149 C134.9404028 147.38190358 132.21986368 144.49333059 129.20404053 141.44454956 C128.6289255 140.87114338 128.05381047 140.2977372 127.46126771 139.70695508 C125.53417141 137.78315466 123.61431331 135.85229003 121.69433594 133.92138672 C120.31488269 132.54136938 118.93498901 131.16179219 117.5546875 129.78262329 C113.80675038 126.03526076 110.06501828 122.28175702 106.32435131 118.52713919 C102.41481281 114.60511113 98.49962228 110.6887337 94.58502197 106.77175903 C87.17212125 99.35263833 79.76433419 91.92843341 72.35836053 84.50239861 C63.92706156 76.04875679 55.49009323 67.60078293 47.05263853 59.15328574 C29.69543319 41.77516666 12.34537709 24.38992448 -5 7 C-3.64062915 4.1394109 -2.35479531 2.14072301 0 0 Z " fill="#EFEFEF" transform="translate(338,329)"/>
<path d="M0 0 C2.17971368 1.77625706 3.98166538 3.35004951 5.25 5.88671875 C5.35621157 7.70839033 5.39880722 9.53391895 5.41113281 11.35864258 C5.42074036 12.50355667 5.4303479 13.64847076 5.44024658 14.82807922 C5.44449646 16.07075058 5.44874634 17.31342194 5.453125 18.59375 C5.45882507 19.86643234 5.46452515 21.13911469 5.47039795 22.45036316 C5.4798593 25.14801613 5.48675014 27.84555755 5.49023438 30.54321289 C5.4957118 33.99328309 5.5197232 37.44295716 5.54820633 40.89290333 C5.57135968 44.18898881 5.57328454 47.48509458 5.578125 50.78125 C5.5904718 52.01784866 5.6028186 53.25444733 5.61553955 54.52851868 C5.61253845 55.68288925 5.60953735 56.83725983 5.60644531 58.02661133 C5.61009094 59.03983963 5.61373657 60.05306793 5.61749268 61.09700012 C5.18362444 64.39059035 4.22657545 66.23359335 2.25 68.88671875 C-2.2499601 71.5337541 -5.81493583 72.41554537 -10.88671875 71.5390625 C-14.65127544 70.22107305 -17.00827981 67.37015913 -18.75 63.88671875 C-18.87142292 62.0760559 -18.93006994 60.2610363 -18.95874023 58.4465332 C-18.97803085 57.30807449 -18.99732147 56.16961578 -19.01719666 54.99665833 C-19.07485964 49.7778499 -19.12453851 44.55912457 -19.1550293 39.34008789 C-19.17280681 36.58798301 -19.20756415 33.83690981 -19.25756836 31.08520508 C-19.32954617 27.11934814 -19.35202677 23.15398081 -19.37109375 19.1875 C-19.39892441 17.96122391 -19.42675507 16.73494781 -19.45542908 15.47151184 C-19.43978327 8.96271506 -19.07645716 4.81466371 -14.43128967 0.04801941 C-10.09594869 -2.94648797 -4.45323666 -2.83297422 0 0 Z " fill="#000000" transform="translate(474.75,157.11328125)"/>
<path d="M0 0 C2.5 1.375 2.5 1.375 5 3 C5 3.66 5 4.32 5 5 C5.99 5.495 5.99 5.495 7 6 C2.09817563 11.7413256 -3.02855876 17.19098573 -8.3503418 22.54321289 C-9.15448517 23.35553375 -9.95862854 24.16785461 -10.78713989 25.00479126 C-13.42149114 27.66375101 -16.0597913 30.31873577 -18.69921875 32.97265625 C-19.60350931 33.88227049 -20.50779987 34.79188473 -21.43949318 35.72906303 C-25.23543189 39.54615834 -29.03237604 43.36223985 -32.83323956 47.1744318 C-38.26443244 52.62192974 -43.68688945 58.07781058 -49.09783238 63.54542547 C-53.3752027 67.86605931 -57.66610123 72.17302538 -61.96195412 76.47527885 C-63.78552056 78.30558242 -65.60481019 80.14015712 -67.41977501 81.97899055 C-69.94762922 84.53822175 -72.49053914 87.08148509 -75.0378418 89.62133789 C-76.16394112 90.77204521 -76.16394112 90.77204521 -77.31278992 91.94599915 C-78.3534259 92.97415741 -78.3534259 92.97415741 -79.41508484 94.02308655 C-80.01437648 94.62568833 -80.61366812 95.22829012 -81.23112011 95.84915257 C-83 97 -83 97 -85.11077595 96.76808834 C-87.39523546 95.83931194 -88.57611692 95.0234128 -90 93 C-89.59799806 89.38118839 -88.02969262 87.65825931 -85.5009613 85.14019775 C-84.37560974 84.0086602 -84.37560974 84.0086602 -83.2275238 82.85426331 C-82.39890335 82.03642868 -81.5702829 81.21859406 -80.71655273 80.37597656 C-79.84833893 79.50732468 -78.98012512 78.63867279 -78.08560181 77.74369812 C-75.70471782 75.36454639 -73.31737076 72.99224778 -70.92691684 70.62273502 C-68.42981311 68.14438155 -65.94119909 65.65753322 -63.45167542 63.17156982 C-58.7367473 58.46596702 -54.01422385 53.76806397 -49.28893 49.07287288 C-43.90946004 43.72693176 -38.53850332 38.37247241 -33.16824806 33.01727724 C-22.12161692 22.00200614 -11.0643329 10.99749209 0 0 Z " fill="#F7F7F7" transform="translate(215,382)"/>
<path d="M0 0 C4.00434926 3.07251956 6.89073244 5.41096863 7.86328125 10.4296875 C8.01152344 11.16445313 8.15976562 11.89921875 8.3125 12.65625 C8.74670912 17.02681393 8.42492663 19.57028834 5.984375 23.3046875 C2.73895874 26.88023218 -0.09824558 29.88120623 -4.8515625 31.16015625 C-9.69081542 31.31297476 -13.27073406 30.47561483 -17.13671875 27.4296875 C-19.81314364 25.24478743 -19.81314364 25.24478743 -22.13671875 25.4296875 C-22.56984375 24.3159375 -22.56984375 24.3159375 -23.01171875 23.1796875 C-24.01992594 20.51701906 -24.01992594 20.51701906 -25.26171875 18.5546875 C-26.9988589 14.33591857 -26.55707501 10.57399066 -25.01171875 6.3671875 C-22.53949103 2.49403074 -19.68373071 -1.74466029 -15.1484375 -3.21484375 C-8.87880805 -4.32268119 -5.1528626 -3.54196769 0 0 Z M-13.13671875 10.4296875 C-12.13671875 12.4296875 -12.13671875 12.4296875 -12.13671875 12.4296875 Z " fill="#404040" transform="translate(291.13671875,313.5703125)"/>
<path d="M0 0 C1.65322266 0.01740234 1.65322266 0.01740234 3.33984375 0.03515625 C4.44457031 0.04417969 5.54929687 0.05320313 6.6875 0.0625 C7.54214844 0.07410156 8.39679688 0.08570313 9.27734375 0.09765625 C7.74082372 3.736453 5.55313616 6.07980271 2.77734375 8.86328125 C1.89046875 9.75273437 1.00359375 10.6421875 0.08984375 11.55859375 C-1.30234375 12.93917969 -1.30234375 12.93917969 -2.72265625 14.34765625 C-4.11484375 15.75144531 -4.11484375 15.75144531 -5.53515625 17.18359375 C-6.42203125 18.06789063 -7.30890625 18.9521875 -8.22265625 19.86328125 C-9.03734375 20.67571289 -9.85203125 21.48814453 -10.69140625 22.32519531 C-12.72265625 24.09765625 -12.72265625 24.09765625 -14.72265625 24.09765625 C-14.99182861 24.69149109 -15.26100098 25.28532593 -15.53833008 25.89715576 C-16.72374576 28.09968059 -17.91371757 29.54215218 -19.671875 31.30566406 C-20.26589111 31.9059845 -20.85990723 32.50630493 -21.47192383 33.12481689 C-22.11154053 33.76038513 -22.75115723 34.39595337 -23.41015625 35.05078125 C-24.06846436 35.71100281 -24.72677246 36.37122437 -25.4050293 37.05145264 C-26.79457917 38.44236126 -28.18664899 39.83075633 -29.58105469 41.21679688 C-31.72174911 43.34675366 -33.85153535 45.48720121 -35.98046875 47.62890625 C-37.33139012 48.97850664 -38.68293143 50.32748684 -40.03515625 51.67578125 C-40.67477295 52.31944641 -41.31438965 52.96311157 -41.97338867 53.62628174 C-46.49272714 58.09765625 -46.49272714 58.09765625 -48.72265625 58.09765625 C-48.99078125 58.69578125 -49.25890625 59.29390625 -49.53515625 59.91015625 C-50.72183031 62.09613479 -51.81864738 63.51098219 -53.72265625 65.09765625 C-54.38265625 65.09765625 -55.04265625 65.09765625 -55.72265625 65.09765625 C-55.72265625 65.75765625 -55.72265625 66.41765625 -55.72265625 67.09765625 C-56.71265625 67.09765625 -57.70265625 67.09765625 -58.72265625 67.09765625 C-62.72265625 62.75479911 -62.72265625 62.75479911 -62.72265625 60.09765625 C-62.06265625 60.09765625 -61.40265625 60.09765625 -60.72265625 60.09765625 C-60.45453125 59.49953125 -60.18640625 58.90140625 -59.91015625 58.28515625 C-58.72348219 56.09917771 -57.62666512 54.68433031 -55.72265625 53.09765625 C-55.06265625 53.09765625 -54.40265625 53.09765625 -53.72265625 53.09765625 C-53.45453125 52.49953125 -53.18640625 51.90140625 -52.91015625 51.28515625 C-51.72348219 49.09917771 -50.62666512 47.68433031 -48.72265625 46.09765625 C-48.06265625 46.09765625 -47.40265625 46.09765625 -46.72265625 46.09765625 C-46.48546875 45.535625 -46.24828125 44.97359375 -46.00390625 44.39453125 C-44.43317928 41.57871583 -42.50794161 39.61810209 -40.22265625 37.34765625 C-39.42859375 36.5484375 -38.63453125 35.74921875 -37.81640625 34.92578125 C-35.72265625 33.09765625 -35.72265625 33.09765625 -33.72265625 33.09765625 C-33.32046875 32.20046875 -33.32046875 32.20046875 -32.91015625 31.28515625 C-31.72348219 29.09917771 -30.62666512 27.68433031 -28.72265625 26.09765625 C-28.06265625 26.09765625 -27.40265625 26.09765625 -26.72265625 26.09765625 C-26.45453125 25.49953125 -26.18640625 24.90140625 -25.91015625 24.28515625 C-24.72348219 22.09917771 -23.62666512 20.68433031 -21.72265625 19.09765625 C-21.06265625 19.09765625 -20.40265625 19.09765625 -19.72265625 19.09765625 C-19.45453125 18.49953125 -19.18640625 17.90140625 -18.91015625 17.28515625 C-17.72348219 15.09917771 -16.62666512 13.68433031 -14.72265625 12.09765625 C-14.06265625 12.09765625 -13.40265625 12.09765625 -12.72265625 12.09765625 C-12.45453125 11.49953125 -12.18640625 10.90140625 -11.91015625 10.28515625 C-10.72348219 8.09917771 -9.62666512 6.68433031 -7.72265625 5.09765625 C-7.06265625 5.09765625 -6.40265625 5.09765625 -5.72265625 5.09765625 C-5.41328125 4.45828125 -5.10390625 3.81890625 -4.78515625 3.16015625 C-3.21663215 0.11537418 -3.21663215 0.11537418 0 0 Z " fill="#F5F5F5" transform="translate(188.72265625,-0.09765625)"/>
<path d="M0 0 C0 0.66 0 1.32 0 2 C0.99 2.33 1.98 2.66 3 3 C3.495 4.485 3.495 4.485 4 6 C1.6875 9.1875 1.6875 9.1875 -1 12 C-1.66 12 -2.32 12 -3 12 C-3.26917236 12.59383484 -3.53834473 13.18766968 -3.81567383 13.79949951 C-5.00108951 16.00202434 -6.19106132 17.44449593 -7.94921875 19.20800781 C-8.54323486 19.80832825 -9.13725098 20.40864868 -9.74926758 21.02716064 C-10.38888428 21.66272888 -11.02850098 22.29829712 -11.6875 22.953125 C-12.34580811 23.61334656 -13.00411621 24.27356812 -13.68237305 24.95379639 C-15.07192292 26.34470501 -16.46399274 27.73310008 -17.85839844 29.11914062 C-19.99909286 31.24909741 -22.1288791 33.38954496 -24.2578125 35.53125 C-25.60873387 36.88085039 -26.96027518 38.22983059 -28.3125 39.578125 C-28.9521167 40.22179016 -29.5917334 40.86545532 -30.25073242 41.52862549 C-34.77007089 46 -34.77007089 46 -37 46 C-37.35578125 46.84256348 -37.35578125 46.84256348 -37.71875 47.70214844 C-39.29319357 50.52582658 -41.21684545 52.47614842 -43.5 54.765625 C-44.386875 55.65507812 -45.27375 56.54453125 -46.1875 57.4609375 C-47.115625 58.38132813 -48.04375 59.30171875 -49 60.25 C-49.928125 61.18585938 -50.85625 62.12171875 -51.8125 63.0859375 C-53.1428125 64.41238281 -53.1428125 64.41238281 -54.5 65.765625 C-55.3146875 66.57805664 -56.129375 67.39048828 -56.96875 68.22753906 C-59 70 -59 70 -61 70 C-61.08107583 68.06318839 -61.13922475 66.1254066 -61.1875 64.1875 C-61.22230469 63.10855469 -61.25710937 62.02960938 -61.29296875 60.91796875 C-61 58 -61 58 -59.61328125 56.11328125 C-58 55 -58 55 -56 55 C-55.731875 54.401875 -55.46375 53.80375 -55.1875 53.1875 C-54.00082594 51.00152146 -52.90400887 49.58667406 -51 48 C-50.34 48 -49.68 48 -49 48 C-48.731875 47.401875 -48.46375 46.80375 -48.1875 46.1875 C-47.00082594 44.00152146 -45.90400887 42.58667406 -44 41 C-43.34 41 -42.68 41 -42 41 C-41.5978125 40.1028125 -41.5978125 40.1028125 -41.1875 39.1875 C-40.00082594 37.00152146 -38.90400887 35.58667406 -37 34 C-36.34 34 -35.68 34 -35 34 C-34.5978125 33.1028125 -34.5978125 33.1028125 -34.1875 32.1875 C-33.00082594 30.00152146 -31.90400887 28.58667406 -30 27 C-29.34 27 -28.68 27 -28 27 C-27.7628125 26.43796875 -27.525625 25.8759375 -27.28125 25.296875 C-25.71052303 22.48105958 -23.78528536 20.52044584 -21.5 18.25 C-20.7059375 17.45078125 -19.911875 16.6515625 -19.09375 15.828125 C-17 14 -17 14 -15 14 C-14.731875 13.401875 -14.46375 12.80375 -14.1875 12.1875 C-13.00082594 10.00152146 -11.90400887 8.58667406 -10 7 C-9.34 7 -8.68 7 -8 7 C-7.731875 6.401875 -7.46375 5.80375 -7.1875 5.1875 C-5.24288471 1.60531394 -4.204264 0 0 0 Z " fill="#F5F5F5" transform="translate(61,128)"/>
<path d="M0 0 C0.81364817 3.88218 0.85363905 7.11489331 0 11 C-3.27690138 15.90504552 -7.40759761 19.83758681 -11.63671875 23.921875 C-12.83740391 25.11726693 -14.03609059 26.31466925 -15.23286438 27.51397705 C-17.73745149 30.01224026 -20.25945073 32.49090768 -22.79663086 34.95605469 C-26.0498609 38.11829029 -29.2640368 41.31699833 -32.46716595 44.52988815 C-34.93551451 47.0004877 -37.41896901 49.45540756 -39.90778542 51.90537262 C-41.09921869 53.080225 -42.28691056 54.25888408 -43.47076988 55.4413681 C-45.12454067 57.08685003 -46.79648366 58.71122898 -48.4753418 60.33105469 C-48.9623053 60.82230835 -49.4492688 61.31356201 -49.95098877 61.81970215 C-51.34867859 63.14422607 -51.34867859 63.14422607 -54 65 C-56.84529114 64.79180908 -56.84529114 64.79180908 -59 64 C-59 63.34 -59 62.68 -59 62 C-59.66 62 -60.32 62 -61 62 C-61.495 60.515 -61.495 60.515 -62 59 C-54.36798149 51.29857041 -46.72795353 43.60518747 -39.07750225 35.92206573 C-35.52561113 32.35449702 -31.97657314 28.78418239 -28.43383789 25.20751953 C-25.01688361 21.75804675 -21.59272194 18.3158847 -18.16337013 14.8787384 C-16.85417378 13.56398504 -15.54762733 12.24658764 -14.24374962 10.92655945 C-12.42157345 9.08270924 -10.59032915 7.24835807 -8.7565918 5.41601562 C-8.21568405 4.86432205 -7.67477631 4.31262848 -7.11747742 3.74421692 C-3.34215648 0 -3.34215648 0 0 0 Z " fill="#F6F6F6" transform="translate(600,0)"/>
<path d="M0 0 C2.625 1.875 2.625 1.875 4 4 C4 4.66 4 5.32 4 6 C4.66 6 5.32 6 6 6 C6 8.31 6 10.62 6 13 C7.98 13 9.96 13 12 13 C11.125 18.75 11.125 18.75 10 21 C8.865625 21.12375 7.73125 21.2475 6.5625 21.375 C3.02700375 21.60495148 3.02700375 21.60495148 1.5625 23.6875 C0.86885971 26.5391323 0.87799772 29.07194531 1 32 C1 36 1 36 -0.3125 37.484375 C-1.875 38.65625 -3.4375 39.828125 -5 41 C-7.53435666 38.7962116 -8.53691481 37.33421339 -9 34 C-9.03888349 31.66699067 -9.0448635 29.33290199 -9 27 C-10.03125 27.12375 -11.0625 27.2475 -12.125 27.375 C-16.5138915 26.95026856 -18.09918949 26.20559368 -20.9609375 22.9765625 C-23.03513292 19.03091256 -22.16221604 15.14208392 -21 11 C-16.70723258 2.24935871 -9.67574003 -1.86783851 0 0 Z M-9 13 C-8.67 13.99 -8.34 14.98 -8 16 C-7.34 15.67 -6.68 15.34 -6 15 C-6 14.34 -6 13.68 -6 13 C-6.99 13 -7.98 13 -9 13 Z " fill="#F2F2F2" transform="translate(354,228)"/>
<path d="M0 0 C2.01591315 -0.21826428 4.03883454 -0.37223758 6.0625 -0.5 C7.75052734 -0.63921875 7.75052734 -0.63921875 9.47265625 -0.78125 C13.35294224 0.07817104 13.69918271 0.4525953 16.05541992 3.37768555 C20.61444705 8.80270817 25.6197267 13.7448998 30.640625 18.73828125 C31.65498524 19.75077103 32.66912095 20.76348581 33.68304443 21.77641296 C36.3296902 24.41927514 38.97932444 27.05912055 41.62963867 29.69830322 C44.33044279 32.38883232 47.02838138 35.08223153 49.7265625 37.77539062 C54.4621269 42.50143085 59.20015107 47.22499039 63.94000244 51.94673157 C65.62831036 53.62952451 67.315132 55.31376421 69 57 C67.35 58.98 65.7 60.96 64 63 C59.7200338 62.5244482 57.80581661 60.08639827 55 57 C54.34 56.154375 53.68 55.30875 53 54.4375 C50.88121393 51.85522947 48.62797078 50.05109914 46 48 C43.46060949 45.5844822 41.15688282 43.20100612 39 40.4375 C36.88121393 37.85522947 34.62797078 36.05109914 32 34 C28.69261219 30.85394818 25.84670716 27.55838395 23 24 C20.44606511 21.31164749 17.84986492 18.87488743 15 16.5 C11.24341674 13.36951395 7.90966399 10.1504574 4.875 6.3125 C3.03438927 3.80846331 3.03438927 3.80846331 0 2 C0 1.34 0 0.68 0 0 Z " fill="#EEEEEE" transform="translate(409,0)"/>
<path d="M0 0 C3.63 0 7.26 0 11 0 C11 0.66 11 1.32 11 2 C11.66 2 12.32 2 13 2 C14.36176922 3.64351457 15.68962066 5.31522656 17 7 C19.4155178 9.53939051 21.79899388 11.84311718 24.5625 14 C27.14477053 16.11878607 28.94890086 18.37202922 31 21 C32.6454378 22.68762851 34.31288577 24.3540349 36 26 C36.804375 26.825 37.60875 27.65 38.4375 28.5 C41.00940708 31.08280067 41.00940708 31.08280067 44.0625 33.5 C46.81245111 35.84038392 48.7982897 38.15908348 51 41 C53.4155178 43.53939051 55.79899388 45.84311718 58.5625 48 C61.13761169 50.11291215 62.97419222 52.36644988 65 55 C65.98230498 56.0173873 66.97469597 57.02596117 68 58 C67.3125 59.875 67.3125 59.875 66 62 C64.35619011 62.7211874 62.68967412 63.39401025 61 64 C60.26528473 63.26306412 59.53056946 62.52612823 58.77359009 61.76686096 C51.86023256 54.83326028 44.94425772 47.90227989 38.02569008 40.97387791 C34.4685981 37.4115601 30.91244529 33.84831505 27.35839844 30.28295898 C23.93060943 26.8443305 20.50040651 23.40812741 17.06849289 19.97361565 C15.75745155 18.66072199 14.44729285 17.34694634 13.13801956 16.03228951 C11.30867453 14.19572001 9.47625911 12.36226877 7.64306641 10.52954102 C7.09856339 9.98144272 6.55406036 9.43334442 5.99305725 8.86863708 C3.25810979 6.08847605 3.25810979 6.08847605 0 4 C0 2.68 0 1.36 0 0 Z " fill="#EFEFEF" transform="translate(0,0)"/>
<path d="M0 0 C3.4235473 1.39614738 5.67932911 3.93731406 8.22906494 6.5300293 C9.10776245 7.40566025 9.10776245 7.40566025 10.00421143 8.29898071 C11.93773535 10.22949745 13.86030639 12.17054014 15.78277588 14.11206055 C17.12169069 15.45403251 18.46119665 16.79541493 19.80126953 18.13623047 C22.60666738 20.94623063 25.40708151 23.76107105 28.20367432 26.57983398 C31.79734322 30.20183963 35.39968398 33.81506062 39.00531387 37.42515564 C41.7697828 40.19377045 44.53140835 42.9652056 47.29198456 45.73770142 C48.62006094 47.07149347 49.94861908 48.40480599 51.27765656 49.73764038 C53.12869388 51.59551314 54.97629418 53.45673141 56.82281494 55.3190918 C57.37757507 55.87496979 57.93233521 56.43084778 58.50390625 57.00357056 C62.26715088 60.80987273 62.26715088 60.80987273 62.26715088 61.92456055 C50.68813487 62.8400318 50.68813487 62.8400318 47.46636963 60.7644043 C46.26715088 59.23706055 46.26715088 59.23706055 44.26715088 55.92456055 C41.86626437 53.40362971 39.48548111 51.09922474 36.76715088 48.92456055 C31.97805284 45.09328211 28.17992674 40.61989158 24.26715088 35.92456055 C21.70943422 33.23567893 19.11926789 30.80132472 16.26715088 28.42456055 C11.36114777 24.33622462 7.34657238 19.81986635 3.26715088 14.92456055 C0.43348028 11.95266212 -2.37316885 9.28878 -5.73284912 6.92456055 C-5.32601417 4.56491781 -4.83470573 3.06521967 -3.42034912 1.11206055 C-1.73284912 -0.07543945 -1.73284912 -0.07543945 0 0 Z " fill="#F4F4F4" transform="translate(130.73284912109375,538.075439453125)"/>
<path d="M0 0 C2.8605891 1.35937085 4.85927699 2.64520469 7 5 C5.42519944 8.75522275 3.08316517 11.22521533 0.26586914 14.13574219 C-0.21418579 14.63375839 -0.69424072 15.1317746 -1.18884277 15.6448822 C-2.77453525 17.28514858 -4.36839467 18.91707866 -5.96484375 20.546875 C-6.51194063 21.10586739 -7.05903751 21.66485977 -7.62271309 22.24079132 C-10.52041304 25.19771357 -13.42575789 28.14691295 -16.33618164 31.09130859 C-18.73659592 33.52286857 -21.1202507 35.96918754 -23.49047852 38.43017578 C-26.36018541 41.40967329 -29.25623736 44.36099145 -32.17294502 47.29447174 C-33.27593297 48.4126818 -34.36954676 49.54022389 -35.45310783 50.67726898 C-43.94697905 59.56668946 -43.94697905 59.56668946 -49.2024231 60.67590332 C-51.90384332 60.68701195 -54.35295535 60.51806378 -57 60 C-56.54834478 55.65668869 -53.70817617 53.30616094 -50.74584961 50.40527344 C-50.19950363 49.85848938 -49.65315765 49.31170532 -49.09025574 48.74835205 C-47.28463897 46.94482343 -45.46863268 45.15215021 -43.65234375 43.359375 C-42.39758637 42.11021346 -41.14349018 40.86038743 -39.89002991 39.60992432 C-36.59055519 36.32189922 -33.28217036 33.04298293 -29.97186279 29.76586914 C-26.5949653 26.41966979 -23.22655345 23.06495267 -19.85742188 19.7109375 C-13.24656856 13.13225043 -6.62627305 6.56315297 0 0 Z " fill="#F7F7F7" transform="translate(57,540)"/>
<path d="M0 0 C4.0595972 1.61809642 6.78013632 4.50666941 9.79595947 7.55545044 C10.3710745 8.12885662 10.94618953 8.7022628 11.53873229 9.29304492 C13.46582859 11.21684534 15.38568669 13.14770997 17.30566406 15.07861328 C18.68511731 16.45863062 20.06501099 17.83820781 21.4453125 19.21737671 C25.19324962 22.96473924 28.93498172 26.71824298 32.67564869 30.47286081 C36.58518719 34.39488887 40.50037772 38.3112663 44.41497803 42.22824097 C51.82787875 49.64736167 59.23566581 57.07156659 66.64163947 64.49760139 C75.07293844 72.95124321 83.50990677 81.39921707 91.94736147 89.84671426 C109.30456681 107.22483334 126.65462291 124.61007552 144 142 C143.67 142.99 143.34 143.98 143 145 C138.9404028 143.38190358 136.21986368 140.49333059 133.20404053 137.44454956 C132.6289255 136.87114338 132.05381047 136.2977372 131.46126771 135.70695508 C129.53417141 133.78315466 127.61431331 131.85229003 125.69433594 129.92138672 C124.31488269 128.54136938 122.93498901 127.16179219 121.5546875 125.78262329 C117.80675038 122.03526076 114.06501828 118.28175702 110.32435131 114.52713919 C106.41481281 110.60511113 102.49962228 106.6887337 98.58502197 102.77175903 C91.17212125 95.35263833 83.76433419 87.92843341 76.35836053 80.50239861 C67.92706156 72.04875679 59.49009323 63.60078293 51.05263853 55.15328574 C33.69543319 37.77516666 16.34537709 20.38992448 -1 3 C-0.67 2.01 -0.34 1.02 0 0 Z " fill="#000000" transform="translate(334,333)"/>
<path d="M0 0 C0.66 1.65 1.32 3.3 2 5 C-2.33436533 9.95356037 -2.33436533 9.95356037 -5.6875 10.1875 C-6.450625 10.125625 -7.21375 10.06375 -8 10 C-10.1385485 12.1385485 -10.42655063 13.13275314 -11 16 C-7.68310144 14.85981612 -5.09027581 13.38023472 -2.25 11.375 C2.14970335 8.51183427 5.88361296 8.46704302 11 9 C11 9.66 11 10.32 11 11 C11.66 11 12.32 11 13 11 C14.85422378 23.00188485 14.85422378 23.00188485 12.87109375 27.640625 C10.3574559 31.04254089 8.01601818 33.49854856 4 35 C1.203125 35.1953125 1.203125 35.1953125 -1.75 35.125 C-3.22726562 35.09792969 -3.22726562 35.09792969 -4.734375 35.0703125 C-5.48203125 35.04710937 -6.2296875 35.02390625 -7 35 C-7.6328125 33.1640625 -7.6328125 33.1640625 -8 31 C-5.65357218 28.10147152 -3.79859327 26.31572292 -0.3125 24.9375 C2.16723474 24.19743689 2.16723474 24.19743689 3.3125 21.875 C3.6528125 20.946875 3.6528125 20.946875 4 20 C3.01 20.433125 2.02 20.86625 1 21.3125 C-11.9014794 26.79693456 -11.9014794 26.79693456 -16 26 C-19.42611243 23.71592505 -19.96098265 22.16127172 -20.9375 18.125 C-21.37305859 11.912559 -18.36577809 8.15762857 -14.4375 3.625 C-9.92937257 -0.79078217 -6.04747442 -0.89225032 0 0 Z " fill="#EDEDED" transform="translate(335,260)"/>
<path d="M0 0 C3.89298459 3.09669229 6.94057176 6.05235066 10 10 C11.6454378 11.68762851 13.31288577 13.3540349 15 15 C15.804375 15.825 16.60875 16.65 17.4375 17.5 C20.00940708 20.08280067 20.00940708 20.08280067 23.0625 22.5 C25.81245111 24.84038392 27.7982897 27.15908348 30 30 C32.4155178 32.53939051 34.79899388 34.84311718 37.5625 37 C40.14477053 39.11878607 41.94890086 41.37202922 44 44 C46.51931386 46.58391165 48.96144985 48.97001655 51.8125 51.1875 C55.00120777 55.28726713 54.43813464 58.98579249 54 64 C49.65668869 63.54834478 47.30616094 60.70817617 44.40527344 57.74584961 C43.58509735 56.92633064 43.58509735 56.92633064 42.74835205 56.09025574 C40.94482343 54.28463897 39.15215021 52.46863268 37.359375 50.65234375 C36.11021346 49.39758637 34.86038743 48.14349018 33.60992432 46.89002991 C30.32189922 43.59055519 27.04298293 40.28217036 23.76586914 36.97186279 C20.41966979 33.5949653 17.06495267 30.22655345 13.7109375 26.85742188 C7.13225043 20.24656856 0.56315297 13.62627305 -6 7 C-4.47427344 3.67364118 -3.06655496 2.04436998 0 0 Z " fill="#EFEFEF" transform="translate(546,536)"/>
<path d="M0 0 C2.75 2.8125 2.75 2.8125 5 6 C6.64639965 7.35827971 8.31295807 8.69254251 10 10 C13.2250297 13.00002763 15.00592905 15.01185809 17 19 C13.535 21.97 13.535 21.97 10 25 C9.278125 24.2575 8.55625 23.515 7.8125 22.75 C5.12944371 20.02460563 5.12944371 20.02460563 2.4375 18 C-0.14584335 15.88033366 -2.06683565 13.72074983 -4 11 C-4 10.34 -4 9.68 -4 9 C-8.34184202 9.18464366 -8.34184202 9.18464366 -12 11 C-12.36760731 13.32817964 -12.70241581 15.6618385 -13 18 C-12.443125 18.226875 -11.88625 18.45375 -11.3125 18.6875 C-8.34144815 20.37377267 -6.35477875 22.530354 -4 25 C-2.6696875 26.299375 -2.6696875 26.299375 -1.3125 27.625 C1 30 1 30 3 33 C1.02 34.98 -0.96 36.96 -3 39 C-6.27418868 37.90860377 -6.83548146 37.27089683 -8.9375 34.6875 C-12.23103181 30.80028435 -15.71400565 27.16422315 -19.3125 23.5625 C-19.84029053 23.03035889 -20.36808105 22.49821777 -20.91186523 21.94995117 C-23.69122428 19.12497862 -23.69122428 19.12497862 -27 17 C-27 15.68 -27 14.36 -27 13 C-25.68 12.67 -24.36 12.34 -23 12 C-23 11.34 -23 10.68 -23 10 C-20.03 10.495 -20.03 10.495 -17 11 C-16.8453125 9.39125 -16.8453125 9.39125 -16.6875 7.75 C-16.02056088 4.11215026 -15.61917683 2.52217028 -13 0 C-8.63927637 -1.44425676 -4.38837739 -1.29208957 0 0 Z " fill="#3F3F3F" transform="translate(313,285)"/>
<path d="M0 0 C1.053424 5.69023814 1.18681635 10.16598012 -2.02990723 15.13687134 C-4.95021637 18.57633511 -8.19817288 21.68255682 -11.453125 24.80078125 C-12.63407445 25.97202592 -13.81273223 27.14558535 -14.98919678 28.32133484 C-17.449685 30.76798434 -19.92862581 33.19352585 -22.42431641 35.60424805 C-25.62607859 38.69793861 -28.78898229 41.82802481 -31.94044876 44.97285175 C-34.36813464 47.39142494 -36.80902574 49.79627011 -39.25484467 52.19649315 C-40.42654902 53.34724112 -41.59551624 54.50078286 -42.76169586 55.65712929 C-44.38904114 57.26428054 -46.03184852 58.85364261 -47.68066406 60.4387207 C-49.07964935 61.80006889 -49.07964935 61.80006889 -50.50689697 63.18891907 C-53 65 -53 65 -55.2230835 64.88273621 C-57.24969207 63.87595802 -58.52103256 62.70081256 -60 61 C-58.39123724 56.98990609 -55.57200449 54.29675865 -52.55639648 51.31347656 C-51.72443756 50.47867012 -51.72443756 50.47867012 -50.87567139 49.6269989 C-49.04565874 47.79328872 -47.20855853 45.96686534 -45.37109375 44.140625 C-44.09802923 42.86875262 -42.82533419 41.59651033 -41.55299377 40.32391357 C-38.88875374 37.66123646 -36.22119011 35.00195033 -33.55102539 32.34521484 C-30.12021336 28.93143551 -26.69606439 25.51106686 -23.27413845 22.08838272 C-20.64857821 19.46309365 -18.0204257 16.84041311 -15.39137459 14.2186203 C-14.12722571 12.95766337 -12.8636902 11.69609121 -11.60076714 10.43390656 C-9.8410866 8.67638158 -8.07816094 6.92218182 -6.31420898 5.16894531 C-5.78795425 4.6422374 -5.26169952 4.11552948 -4.71949768 3.57286072 C-1.11447708 0 -1.11447708 0 0 0 Z " fill="#FEFEFE" transform="translate(600,415)"/>
<path d="M0 0 C4.67692308 1.47692308 4.67692308 1.47692308 6.3125 4.125 C6.539375 4.74375 6.76625 5.3625 7 6 C0.46326907 12.81551288 -6.10592422 19.59755282 -12.7181282 26.33987427 C-15.78793961 29.47215638 -18.8456658 32.61452423 -21.87792969 35.78320312 C-24.80811228 38.84435559 -27.76717922 41.87470848 -30.74800873 44.88653564 C-31.87651307 46.03711089 -32.99445234 47.19815331 -34.10105133 48.36981201 C-42.79496488 57.55367137 -42.79496488 57.55367137 -48.44958496 58.69824219 C-51.39856013 58.70946939 -54.10315704 58.53045234 -57 58 C-51.50280742 51.30470134 -45.39046848 45.26303509 -39.2578125 39.16015625 C-38.12273594 38.02694801 -36.98788237 36.89351638 -35.85324097 35.75987244 C-32.88649256 32.79691665 -29.91675198 29.83697807 -26.9463501 26.87768555 C-23.9077114 23.84933144 -20.87195091 20.81809501 -17.8359375 17.78710938 C-11.8934174 11.85526911 -5.947729 5.92661739 0 0 Z " fill="#FEFEFE" transform="translate(472,542)"/>
<path d="M0 0 C4.8938496 0.41947282 6.73093997 2.48576046 10 6 C11.2684375 6.99 11.2684375 6.99 12.5625 8 C15.14477053 10.11878607 16.94890086 12.37202922 19 15 C21.4155178 17.53939051 23.79899388 19.84311718 26.5625 22 C29.14477053 24.11878607 30.94890086 26.37202922 33 29 C34.6454378 30.68762851 36.31288577 32.3540349 38 34 C38.804375 34.825 39.60875 35.65 40.4375 36.5 C42.9980505 39.07363115 42.9980505 39.07363115 46 41.4375 C49.07903881 44.06751232 51.45078401 46.8625034 54 50 C55.6459651 51.68711423 57.31237149 53.3545622 59 55 C59.804375 55.825 60.60875 56.65 61.4375 57.5 C64.00940708 60.08280067 64.00940708 60.08280067 67.0625 62.5 C69.81245111 64.84038392 71.7982897 67.15908348 74 70 C75.6454378 71.68762851 77.31288577 73.3540349 79 75 C79.804375 75.825 80.60875 76.65 81.4375 77.5 C84.18084285 80.17643205 87.02880289 82.58158375 90 85 C89.505 86.98 89.505 86.98 89 89 C85 89 85 89 83.16471481 87.65690613 C82.53420841 87.02271255 81.90370201 86.38851898 81.25408936 85.73510742 C80.52497345 85.01149017 79.79585754 84.28787292 79.04464722 83.54232788 C78.25486481 82.73816437 77.4650824 81.93400085 76.65136719 81.10546875 C75.81197601 80.26666168 74.97258484 79.42785461 74.10775757 78.56362915 C71.80735518 76.26091557 69.5160781 73.94956145 67.2285223 71.63409805 C64.83603506 69.21662597 62.43223501 66.81045742 60.02960205 64.40307617 C55.4813484 59.84238416 50.94338808 55.27159058 46.40902066 50.69709682 C41.24642589 45.48981111 36.07248464 40.29386279 30.89755011 35.09884453 C20.25234278 24.41181342 9.62149769 13.71059957 -1 3 C-0.67 2.01 -0.34 1.02 0 0 Z " fill="#EFEFEF" transform="translate(182,176)"/>
<path d="M0 0 C1.32 0.66 2.64 1.32 4 2 C4 2.66 4 3.32 4 4 C2.5454464 5.43510723 2.5454464 5.43510723 0.52523804 7.1068573 C-4.00634588 10.96351893 -8.20811255 15.07405977 -12.40380859 19.2902832 C-13.20155701 20.08788559 -13.99930542 20.88548798 -14.82122803 21.70726013 C-17.43267793 24.31940139 -20.04057674 26.93505715 -22.6484375 29.55078125 C-24.47045348 31.37466452 -26.29269202 33.1983255 -28.11514282 35.02177429 C-32.40676276 39.31681004 -36.69615123 43.61406241 -40.9844414 47.91242236 C-45.86306001 52.80224712 -50.74454238 57.68920875 -55.62626147 62.57593787 C-65.25231009 72.2119824 -74.87512962 81.85124588 -84.49562645 91.49283314 C-85.6631322 92.66250671 -86.83140984 93.83140984 -88 95 C-88.66 94.34 -89.32 93.68 -90 93 C-89.700343 89.38870018 -88.00171413 87.63039888 -85.5009613 85.14019775 C-84.37560974 84.0086602 -84.37560974 84.0086602 -83.2275238 82.85426331 C-82.39890335 82.03642868 -81.5702829 81.21859406 -80.71655273 80.37597656 C-79.84833893 79.50732468 -78.98012512 78.63867279 -78.08560181 77.74369812 C-75.70471782 75.36454639 -73.31737076 72.99224778 -70.92691684 70.62273502 C-68.42981311 68.14438155 -65.94119909 65.65753322 -63.45167542 63.17156982 C-58.7367473 58.46596702 -54.01422385 53.76806397 -49.28893 49.07287288 C-43.90946004 43.72693176 -38.53850332 38.37247241 -33.16824806 33.01727724 C-22.12161692 22.00200614 -11.0643329 10.99749209 0 0 Z " fill="#080808" transform="translate(215,382)"/>
<path d="M0 0 C0.8440741 0.29388107 1.68814819 0.58776215 2.55780029 0.89054871 C-1.55629405 5.79452471 -5.82747179 10.41590678 -10.36553955 14.92741394 C-11.02965851 15.59167892 -11.69377747 16.25594391 -12.37802124 16.94033813 C-14.5506953 19.1123214 -16.72687843 21.2807515 -18.90313721 23.44914246 C-20.41935742 24.96349553 -21.93535547 26.47807107 -23.45114136 27.99285889 C-27.42401673 31.96193243 -31.39988701 35.92799252 -35.37640381 39.89341736 C-39.44052525 43.94727432 -43.50178592 48.00399508 -47.56329346 52.06047058 C-55.52014297 60.00662396 -63.48016165 67.94959448 -71.44219971 75.89054871 C-72.76219971 75.23054871 -74.08219971 74.57054871 -75.44219971 73.89054871 C-74.14669803 71.04621031 -72.77563578 68.96772204 -70.58459473 66.74533081 C-69.709991 65.85142891 -69.709991 65.85142891 -68.81771851 64.93946838 C-68.17978363 64.29772675 -67.54184875 63.65598511 -66.88458252 62.99479675 C-66.21117828 62.30985641 -65.53777405 61.62491608 -64.84396362 60.91921997 C-62.61683405 58.65780738 -60.38188985 56.40434657 -58.14532471 54.15226746 C-57.00089024 52.99747863 -57.00089024 52.99747863 -55.83333588 51.81936073 C-51.79917952 47.74938942 -47.75892768 43.68558313 -43.71368408 39.62663269 C-39.53069519 35.42705352 -35.36907787 31.20694003 -31.21196365 26.98176861 C-28.01517052 23.74029207 -24.80296701 20.51442891 -21.5863266 17.29265785 C-20.04466562 15.74308322 -18.50890424 14.18761627 -16.97916412 12.6262722 C-14.84133019 10.44719505 -12.68265236 8.29110917 -10.51739502 6.139328 C-9.88755707 5.48746521 -9.25771912 4.83560242 -8.60879517 4.16398621 C-4.21824644 -0.13412718 -4.21824644 -0.13412718 0 0 Z " fill="#F7F7F7" transform="translate(463.44219970703125,143.1094512939453)"/>
<path d="M0 0 C4.37247183 0.45410459 6.87365467 3.35397889 9.859375 6.28515625 C10.40861633 6.81966904 10.95785767 7.35418182 11.52374268 7.90489197 C12.68090411 9.03813039 13.83387533 10.17566117 14.98291016 11.31713867 C16.73919197 13.05182487 18.52257651 14.75500075 20.30859375 16.45898438 C21.43148957 17.56588319 22.5526433 18.67455262 23.671875 19.78515625 C24.4733194 20.53878197 24.4733194 20.53878197 25.29095459 21.30763245 C28.1152122 24.18447521 29.3464954 26.29808895 29.45800781 30.26342773 C29 34 29 34 27 36 C26.01 36.495 26.01 36.495 25 37 C24.278125 36.2575 23.55625 35.515 22.8125 34.75 C20.12944371 32.02460563 20.12944371 32.02460563 17.4375 30 C14.85522947 27.88121393 13.05109914 25.62797078 11 23 C9.3545622 21.31237149 7.68711423 19.6459651 6 18 C4.33333333 16.33333333 2.66666667 14.66666667 1 13 C0.05125 12.154375 -0.8975 11.30875 -1.875 10.4375 C-4 8 -4 8 -4 5.9375 C-2.871981 3.75196319 -1.55983619 1.89893102 0 0 Z " fill="#F6F6F6" transform="translate(223,348)"/>
<path d="M0 0 C0 0.66 0 1.32 0 2 C0.5775 2.0825 1.155 2.165 1.75 2.25 C4.8864184 3.2954728 6.08956046 4.27080066 8 7 C8.69461209 11.08370843 8.50719509 14.70031257 7 18.5625 C-1.78140819 29.26484123 -1.78140819 29.26484123 -7 30 C-13.48780488 30.34146341 -13.48780488 30.34146341 -17 28 C-16.154375 27.360625 -15.30875 26.72125 -14.4375 26.0625 C-11.77697459 23.37065822 -11.77697459 23.37065822 -11.99609375 20.83984375 C-12.24886637 19.27890769 -12.50799377 17.71898755 -12.7734375 16.16015625 C-13 14 -13 14 -12 10.9375 C-10 9 -10 9 -6.3125 8.6875 C-5.219375 8.790625 -4.12625 8.89375 -3 9 C-2.34 6.36 -1.68 3.72 -1 1 C-2.98 1 -4.96 1 -7 1 C-3.375 -1.125 -3.375 -1.125 0 0 Z M-7 12 C-9.37015245 14.65484449 -9.37015245 14.65484449 -10 18 C-9.34 18 -8.68 18 -8 18 C-7.34 16.02 -6.68 14.04 -6 12 C-6.33 12 -6.66 12 -7 12 Z " fill="#404040" transform="translate(367,240)"/>
<path d="M0 0 C1.2065625 0.0309375 1.2065625 0.0309375 2.4375 0.0625 C0.80684355 4.19875009 -2.19473452 6.96206599 -5.29736328 10.02441406 C-5.88286957 10.6102124 -6.46837585 11.19601074 -7.07162476 11.79956055 C-9.00398356 13.73052839 -10.94332516 15.65431947 -12.8828125 17.578125 C-14.22560456 18.91718611 -15.56795513 20.25669009 -16.90988159 21.59661865 C-20.44003717 25.11914429 -23.97615806 28.63562203 -27.5135498 32.15087891 C-31.12332851 35.74018551 -34.72744015 39.33517256 -38.33203125 42.9296875 C-45.40331558 49.97953318 -52.48091413 57.02300337 -59.5625 64.0625 C-60.5525 63.4025 -61.5425 62.7425 -62.5625 62.0625 C-62.5625 61.4025 -62.5625 60.7425 -62.5625 60.0625 C-61.9025 60.0625 -61.2425 60.0625 -60.5625 60.0625 C-60.294375 59.464375 -60.02625 58.86625 -59.75 58.25 C-58.56332594 56.06402146 -57.46650887 54.64917406 -55.5625 53.0625 C-54.9025 53.0625 -54.2425 53.0625 -53.5625 53.0625 C-53.294375 52.464375 -53.02625 51.86625 -52.75 51.25 C-51.56332594 49.06402146 -50.46650887 47.64917406 -48.5625 46.0625 C-47.9025 46.0625 -47.2425 46.0625 -46.5625 46.0625 C-46.3253125 45.50046875 -46.088125 44.9384375 -45.84375 44.359375 C-44.27302303 41.54355958 -42.34778536 39.58294584 -40.0625 37.3125 C-39.2684375 36.51328125 -38.474375 35.7140625 -37.65625 34.890625 C-35.5625 33.0625 -35.5625 33.0625 -33.5625 33.0625 C-33.1603125 32.1653125 -33.1603125 32.1653125 -32.75 31.25 C-31.56332594 29.06402146 -30.46650887 27.64917406 -28.5625 26.0625 C-27.9025 26.0625 -27.2425 26.0625 -26.5625 26.0625 C-26.294375 25.464375 -26.02625 24.86625 -25.75 24.25 C-24.56332594 22.06402146 -23.46650887 20.64917406 -21.5625 19.0625 C-20.9025 19.0625 -20.2425 19.0625 -19.5625 19.0625 C-19.294375 18.464375 -19.02625 17.86625 -18.75 17.25 C-17.56332594 15.06402146 -16.46650887 13.64917406 -14.5625 12.0625 C-13.9025 12.0625 -13.2425 12.0625 -12.5625 12.0625 C-12.294375 11.464375 -12.02625 10.86625 -11.75 10.25 C-10.56332594 8.06402146 -9.46650887 6.64917406 -7.5625 5.0625 C-6.9025 5.0625 -6.2425 5.0625 -5.5625 5.0625 C-5.253125 4.423125 -4.94375 3.78375 -4.625 3.125 C-3.05351796 0.07447605 -3.05351796 0.07447605 0 0 Z " fill="#050505" transform="translate(188.5625,-0.0625)"/>
<path d="M0 0 C-0.40226618 4.91249262 -2.82333981 7.38841527 -6.19067383 10.69238281 C-6.73059464 11.2377066 -7.27051544 11.7830304 -7.82679749 12.34487915 C-9.61044063 14.14100837 -11.40816911 15.92224794 -13.20703125 17.703125 C-14.45221104 18.94845976 -15.69672404 20.19446155 -16.94059753 21.44110107 C-19.54793363 24.04982108 -22.16210322 26.65143259 -24.78149414 29.24804688 C-28.1393832 32.57753704 -31.48146665 35.92237641 -34.81880665 39.27244949 C-37.38595074 41.84654643 -39.9604086 44.413224 -42.53723717 46.97762299 C-43.77248337 48.20835193 -45.00564243 49.44117933 -46.23667336 50.67612457 C-47.95759405 52.3999539 -49.68789746 54.11377004 -51.42114258 55.82519531 C-51.92883179 56.33738617 -52.436521 56.84957703 -52.95959473 57.37728882 C-55.49528563 59.86013324 -57.38916478 61.61389578 -61 62 C-61.495 60.515 -61.495 60.515 -62 59 C-54.36798149 51.29857041 -46.72795353 43.60518747 -39.07750225 35.92206573 C-35.52561113 32.35449702 -31.97657314 28.78418239 -28.43383789 25.20751953 C-25.01688361 21.75804675 -21.59272194 18.3158847 -18.16337013 14.8787384 C-16.85417378 13.56398504 -15.54762733 12.24658764 -14.24374962 10.92655945 C-12.42157345 9.08270924 -10.59032915 7.24835807 -8.7565918 5.41601562 C-8.21568405 4.86432205 -7.67477631 4.31262848 -7.11747742 3.74421692 C-3.34215648 0 -3.34215648 0 0 0 Z " fill="#080808" transform="translate(600,0)"/>
<path d="M0 0 C3.6689397 1.54826686 6.05096206 3.77425564 8.8762207 6.55395508 C9.34658249 7.01438705 9.81694427 7.47481903 10.30155945 7.94920349 C11.84855128 9.46709197 13.38774585 10.99257116 14.92578125 12.51953125 C15.99862847 13.58086985 17.07147907 14.64220505 18.14433289 15.70353699 C20.38826998 17.92649809 22.62754128 20.1540534 24.86450195 22.3840332 C27.73408844 25.24261847 30.621772 28.08216343 33.51411152 30.91769886 C35.73486569 33.10125289 37.94213543 35.29806201 40.145895 37.4987545 C41.20512003 38.55192007 42.26935266 39.60007369 43.33858681 40.64307594 C44.8304674 42.10091853 46.30233602 43.57643851 47.77075195 45.05786133 C48.61362259 45.8934407 49.45649323 46.72902008 50.3249054 47.58992004 C52 50 52 50 51.764328 52.80888367 C51.51209976 53.53195206 51.25987152 54.25502045 51 55 C47.43310243 53.48496802 45.16244373 51.39944022 42.44677734 48.65795898 C41.55260101 47.7604039 40.65842468 46.86284882 39.7371521 45.93809509 C38.77004874 44.95745936 37.80297799 43.97679148 36.8359375 42.99609375 C35.83804564 41.99192861 34.83963497 40.98827879 33.84072876 39.98512268 C31.21674832 37.34786017 28.59839906 34.70508329 25.98162842 32.06066895 C21.78741723 27.8232776 17.586417 23.59264289 13.3821907 19.36519051 C11.91404164 17.88680667 10.44934522 16.40506421 8.98495483 14.92295837 C8.09708282 14.02855545 7.20921082 13.13415253 6.29443359 12.21264648 C5.51151947 11.42147934 4.72860535 10.63031219 3.92196655 9.81517029 C2.12314639 7.94115685 2.12314639 7.94115685 0 7 C0 4.69 0 2.38 0 0 Z " fill="#F4F4F4" transform="translate(0,408)"/>
<path d="M0 0 C0.495 1.485 0.495 1.485 1 3 C-6.78262354 10.82887938 -14.57057745 18.65241221 -22.36546135 26.46908569 C-25.98441958 30.09849961 -29.60148643 33.72975817 -33.21435547 37.36523438 C-36.6983279 40.87087159 -40.18710446 44.37165961 -43.6793251 47.86907959 C-45.01357918 49.20704089 -46.34606616 50.5467667 -47.67678452 51.88824463 C-49.53497942 53.76086981 -51.39924971 55.6272312 -53.26513672 57.4921875 C-53.81899048 58.05323181 -54.37284424 58.61427612 -54.94348145 59.19232178 C-58.77189568 63 -58.77189568 63 -61 63 C-61.36625971 58.48279689 -61.36625971 58.48279689 -59.625 56.1875 C-58 55 -58 55 -56 55 C-55.731875 54.401875 -55.46375 53.80375 -55.1875 53.1875 C-54.00082594 51.00152146 -52.90400887 49.58667406 -51 48 C-50.34 48 -49.68 48 -49 48 C-48.731875 47.401875 -48.46375 46.80375 -48.1875 46.1875 C-47.00082594 44.00152146 -45.90400887 42.58667406 -44 41 C-43.34 41 -42.68 41 -42 41 C-41.5978125 40.1028125 -41.5978125 40.1028125 -41.1875 39.1875 C-40.00082594 37.00152146 -38.90400887 35.58667406 -37 34 C-36.34 34 -35.68 34 -35 34 C-34.5978125 33.1028125 -34.5978125 33.1028125 -34.1875 32.1875 C-33.00082594 30.00152146 -31.90400887 28.58667406 -30 27 C-29.34 27 -28.68 27 -28 27 C-27.7628125 26.43796875 -27.525625 25.8759375 -27.28125 25.296875 C-25.71052303 22.48105958 -23.78528536 20.52044584 -21.5 18.25 C-20.7059375 17.45078125 -19.911875 16.6515625 -19.09375 15.828125 C-17 14 -17 14 -15 14 C-14.731875 13.401875 -14.46375 12.80375 -14.1875 12.1875 C-13.00082594 10.00152146 -11.90400887 8.58667406 -10 7 C-9.34 7 -8.68 7 -8 7 C-7.731875 6.401875 -7.46375 5.80375 -7.1875 5.1875 C-5.24288471 1.60531394 -4.204264 0 0 0 Z " fill="#050505" transform="translate(61,128)"/>
<path d="M0 0 C2.5625 -0.5 2.5625 -0.5 6 0 C7.93230864 1.72527557 9.4567425 3.61788308 11.07421875 5.640625 C14.40552646 9.72198374 18.24682613 13.31055927 22 17 C27 22 27 22 29.4375 24.5 C31.97522953 27.05545863 31.97522953 27.05545863 34.875 29.3125 C37.34723422 31.32316619 39.37441461 33.50979773 41.4375 35.9375 C43.65069463 38.53982775 45.86020713 40.83265328 48.5 43 C51.82940017 45.73353437 54.50783927 48.81933656 57.2890625 52.09765625 C59.64770886 54.72016944 62.22278374 56.83241658 65 59 C64.67 60.32 64.34 61.64 64 63 C59.7200338 62.5244482 57.80581661 60.08639827 55 57 C54.34 56.154375 53.68 55.30875 53 54.4375 C50.88121393 51.85522947 48.62797078 50.05109914 46 48 C43.46060949 45.5844822 41.15688282 43.20100612 39 40.4375 C36.88121393 37.85522947 34.62797078 36.05109914 32 34 C28.69261219 30.85394818 25.84670716 27.55838395 23 24 C20.44606511 21.31164749 17.84986492 18.87488743 15 16.5 C11.24341674 13.36951395 7.90966399 10.1504574 4.875 6.3125 C3.03438927 3.80846331 3.03438927 3.80846331 0 2 C0 1.34 0 0.68 0 0 Z " fill="#030303" transform="translate(409,0)"/>
<path d="M0 0 C1.32 0.66 2.64 1.32 4 2 C-1.48572036 8.65551284 -7.52825205 14.72852958 -13.6015625 20.83984375 C-14.42981096 21.6742055 -14.42981096 21.6742055 -15.27479172 22.52542305 C-18.18774368 25.45909347 -21.10385722 28.38957972 -24.02246094 31.31762695 C-27.03488587 34.34119803 -30.03543698 37.37628257 -33.03362465 40.41396236 C-35.34668094 42.75309328 -37.66851224 45.08336101 -39.99283981 47.41128731 C-41.10380102 48.5271237 -42.21137756 49.64634059 -43.31547928 50.76896477 C-44.8542564 52.33197887 -46.40505882 53.88200114 -47.95947266 55.42944336 C-48.8385025 56.31433945 -49.71753235 57.19923553 -50.62319946 58.11094666 C-53 60 -53 60 -57 60 C-56.54834478 55.65668869 -53.70817617 53.30616094 -50.74584961 50.40527344 C-50.19950363 49.85848938 -49.65315765 49.31170532 -49.09025574 48.74835205 C-47.28463897 46.94482343 -45.46863268 45.15215021 -43.65234375 43.359375 C-42.39758637 42.11021346 -41.14349018 40.86038743 -39.89002991 39.60992432 C-36.59055519 36.32189922 -33.28217036 33.04298293 -29.97186279 29.76586914 C-26.5949653 26.41966979 -23.22655345 23.06495267 -19.85742188 19.7109375 C-13.24656856 13.13225043 -6.62627305 6.56315297 0 0 Z " fill="#080808" transform="translate(57,540)"/>
<path d="M0 0 C2.3671875 1.03125 2.3671875 1.03125 4 2 C2.7016661 4.89628331 1.54677947 7.0679604 -1 9 C-3.32548007 9.69356423 -5.65880445 10.36149212 -8 11 C-10.24366663 12.81082504 -10.24366663 12.81082504 -10.1875 15.375 C-10.10084719 17.89724757 -10.10084719 17.89724757 -9.4609375 19.8359375 C-8.90299477 22.45543132 -9.12316799 24.59564078 -9.4375 27.25 C-9.53933594 28.14203125 -9.64117187 29.0340625 -9.74609375 29.953125 C-9.82988281 30.62859375 -9.91367188 31.3040625 -10 32 C-11.10968221 31.25818505 -12.21250456 30.50610453 -13.3125 29.75 C-13.92738281 29.33234375 -14.54226562 28.9146875 -15.17578125 28.484375 C-18.25990872 25.97480661 -19.84874515 24.18239004 -20.36328125 20.16015625 C-20.34652344 19.13792969 -20.32976562 18.11570312 -20.3125 17.0625 C-20.30863281 16.04285156 -20.30476562 15.02320313 -20.30078125 13.97265625 C-19.76886566 8.71567228 -17.82543647 4.80623709 -14.046875 1.16796875 C-9.80045317 -1.25508493 -4.70316424 -0.68123827 0 0 Z " fill="#F4F4F4" transform="translate(262,335)"/>
<path d="M0 0 C3.74762264 0.41922279 5.5005924 2.13983391 8.09082031 4.76611328 C8.88554749 5.56429474 9.68027466 6.3624762 10.49908447 7.18484497 C11.35016785 8.05454926 12.20125122 8.92425354 13.078125 9.8203125 C13.96352966 10.71233368 14.84893433 11.60435486 15.76116943 12.52340698 C18.11761484 14.89932136 20.46764733 17.28121413 22.81439209 19.66668701 C26.10123373 23.0055122 29.39788432 26.33462278 32.69598389 29.662323 C34.44897771 31.43213244 36.19886592 33.20502524 37.94512939 34.98147583 C43.71224045 40.81829638 49.69909792 46.24924827 56 51.5 C58.62463616 54.7807952 58.40107728 56.9090117 58 61 C57.01 60.34 56.02 59.68 55 59 C55 58.34 55 57.68 55 57 C54.45166504 56.78923828 53.90333008 56.57847656 53.33837891 56.36132812 C50.163664 54.51311239 47.99206253 51.94038267 45.5859375 49.21875 C39.68015505 42.68204648 33.55612224 36.40217583 27.31591797 30.18554688 C25.60134046 28.47641562 23.89229023 26.7618838 22.18359375 25.046875 C21.07323775 23.93717863 19.96257222 22.82779187 18.8515625 21.71875 C18.3514566 21.21661987 17.85135071 20.71448975 17.33609009 20.19714355 C14.03473286 16.91740536 10.5929663 13.94749701 7 11 C3.6640517 7.89679227 1.17626467 5.0089086 -1 1 C-0.67 0.67 -0.34 0.34 0 0 Z " fill="#3D3D3D" transform="translate(542,125)"/>
<path d="M0 0 C0.71105392 0.71138123 1.42210785 1.42276245 2.15470886 2.15570068 C4.94189986 4.94286494 7.73298146 7.72611885 10.5246582 10.50878906 C15.86285386 15.83072698 21.19856963 21.15514372 26.53283405 26.48102188 C29.7550348 29.69797557 32.97817649 32.91397535 36.20336914 36.12792969 C39.33003926 39.24377834 42.45429894 42.36202488 45.57686424 45.481987 C46.76777684 46.67104698 47.95957153 47.85922415 49.15224648 49.04651642 C50.81124556 50.69831308 52.46714633 52.35315493 54.12231445 54.00878906 C54.61939911 54.50227844 55.11648376 54.99576782 55.62863159 55.50421143 C59 58.88594463 59 58.88594463 59 60 C56.3125 60.375 56.3125 60.375 53 60 C51.11060368 58.01843801 49.6024605 56.17955238 48 54 C45.59911349 51.47906917 43.21833024 49.17466419 40.5 47 C35.71090196 43.16872157 31.91277586 38.69533104 28 34 C25.44228334 31.31111838 22.85211701 28.87676417 20 26.5 C15.09399689 22.41166407 11.0794215 17.8953058 7 13 C4.1663294 10.02810157 1.35968027 7.36421945 -2 5 C-1.125 1.125 -1.125 1.125 0 0 Z " fill="#030303" transform="translate(127,540)"/>
<path d="M0 0 C4 0 4 0 5.49024963 1.31494141 C5.98274704 1.94577637 6.47524445 2.57661133 6.98266602 3.2265625 C10.03998273 6.92511665 13.26611218 10.38478309 16.65991211 13.7734375 C17.18171838 14.29570419 17.70352465 14.81797089 18.24114323 15.35606384 C19.91784232 17.03109498 21.59754499 18.70307787 23.27734375 20.375 C24.45583183 21.55161924 25.63409653 22.72846225 26.81214905 23.90551758 C29.88902808 26.97860807 32.9688999 30.04868155 36.04943848 33.11810303 C39.20211573 36.26048674 42.35190669 39.40576071 45.50195312 42.55078125 C51.66517254 48.70332807 57.83156165 54.85268562 64 61 C63.67 61.99 63.34 62.98 63 64 C58.99260303 62.39425598 56.31601504 59.57769236 53.34521484 56.55639648 C52.7918898 56.0017572 52.23856476 55.44711792 51.66847229 54.87567139 C49.84464957 53.04536905 48.02790474 51.20819955 46.2109375 49.37109375 C44.94400135 48.09788633 43.6765481 46.82519327 42.40859985 45.55299377 C39.07442735 42.20552572 35.74586963 38.85253448 32.41888428 35.4979248 C27.0876273 30.12352361 21.74961312 24.75585424 16.40837479 19.39137459 C14.54137089 17.51412555 12.67780418 15.63351288 10.81454468 13.75254822 C9.67514321 12.60632108 8.53563298 11.46020206 7.39599609 10.31420898 C6.87647873 9.78795425 6.35696136 9.26169952 5.82170105 8.71949768 C3.168563 6.01968619 3.168563 6.01968619 0 4 C0 2.68 0 1.36 0 0 Z " fill="#000000" transform="translate(0,0)"/>
<path d="M0 0 C0.31930542 2.1452179 0.31930542 2.1452179 0 5 C-1.6424001 7.10986594 -3.20223958 8.83571602 -5.10888672 10.67651367 C-5.65187408 11.22023117 -6.19486145 11.76394867 -6.75430298 12.32414246 C-8.55116668 14.11752448 -10.36508986 15.89254735 -12.1796875 17.66796875 C-13.43151765 18.91047038 -14.68224609 20.1540829 -15.93191528 21.39875793 C-19.22466101 24.67241638 -22.53213834 27.93078991 -25.84289551 31.18621826 C-29.21022265 34.50247013 -32.56351382 37.83284645 -35.91796875 41.16210938 C-41.81210901 47.00837009 -47.71834901 52.84217826 -53.6335144 58.66716003 C-55.09375621 60.10664078 -56.55010156 61.55010156 -58 63 C-58.66 61.68 -59.32 60.36 -60 59 C-52.32755193 51.30443252 -44.65244302 43.61152999 -36.97387791 35.92206573 C-33.40891213 32.35187025 -29.84488704 28.78074592 -26.28295898 25.20751953 C-22.84868386 21.76241864 -19.41200705 18.31973088 -15.97361565 14.8787384 C-14.65895795 13.5622259 -13.34518402 12.24483029 -12.03228951 10.92655945 C-10.20033693 9.08740057 -8.36533254 7.25134143 -6.52954102 5.41601562 C-5.98144272 4.86432205 -5.43334442 4.31262848 -4.86863708 3.74421692 C-1.11405216 0 -1.11405216 0 0 0 Z " fill="#000000" transform="translate(600,415)"/>
<path d="M0 0 C1.06942085 1.07089371 1.06942085 1.07089371 2.16044617 2.16342163 C4.90957959 4.91247592 7.67036532 7.64962353 10.43286133 10.38525391 C15.67555294 15.57914237 20.91077903 20.78048649 26.14168262 25.98624611 C29.30074245 29.12957682 32.46258043 32.27000985 35.63061523 35.40429688 C38.70330142 38.44447226 41.7686757 41.49184377 44.82904625 44.54441452 C45.99586921 45.70568819 47.16533239 46.86431516 48.3374424 48.02025223 C49.9700071 49.63114699 51.59304916 51.25107754 53.21411133 52.87353516 C54.14056961 53.7933316 55.06702789 54.71312805 56.02156067 55.66079712 C58 58 58 58 58 61 C53.65668869 60.54834478 51.30616094 57.70817617 48.40527344 54.74584961 C47.58509735 53.92633064 47.58509735 53.92633064 46.74835205 53.09025574 C44.94482343 51.28463897 43.15215021 49.46863268 41.359375 47.65234375 C40.11021346 46.39758637 38.86038743 45.14349018 37.60992432 43.89002991 C34.32189922 40.59055519 31.04298293 37.28217036 27.76586914 33.97186279 C24.41966979 30.5949653 21.06495267 27.22655345 17.7109375 23.85742188 C11.13225043 17.24656856 4.56315297 10.62627305 -2 4 C-1.34 2.68 -0.68 1.36 0 0 Z " fill="#000000" transform="translate(542,539)"/>
<path d="M0 0 C0.99 0.33 1.98 0.66 3 1 C1.40443948 4.87461359 -1.08684893 7.3594792 -4.01293945 10.31933594 C-4.52213928 10.83685928 -5.03133911 11.35438263 -5.55596924 11.8875885 C-7.23631662 13.59197944 -8.92417946 15.28866221 -10.61328125 16.984375 C-11.78679403 18.16685544 -12.96022941 19.34941269 -14.1335907 20.53204346 C-16.59209857 23.00702643 -19.05495368 25.47759439 -21.52026367 27.94580078 C-24.67971871 31.11065085 -27.82268692 34.29135246 -30.96194172 37.47622299 C-33.37872544 39.92272556 -35.80666175 42.35792123 -38.23784447 44.79010773 C-39.40175822 45.9582308 -40.56154542 47.1304806 -41.71709633 48.30687714 C-43.33278474 49.94938315 -44.96348628 51.5753849 -46.59887695 53.19824219 C-47.52328079 54.12771667 -48.44768463 55.05719116 -49.40010071 56.01483154 C-52 58 -52 58 -54.83757019 58.30010986 C-55.55117203 58.20107361 -56.26477386 58.10203735 -57 58 C-51.50280742 51.30470134 -45.39046848 45.26303509 -39.2578125 39.16015625 C-38.12273594 38.02694801 -36.98788237 36.89351638 -35.85324097 35.75987244 C-32.88649256 32.79691665 -29.91675198 29.83697807 -26.9463501 26.87768555 C-23.9077114 23.84933144 -20.87195091 20.81809501 -17.8359375 17.78710938 C-11.8934174 11.85526911 -5.947729 5.92661739 0 0 Z " fill="#000000" transform="translate(472,542)"/>
<path d="M0 0 C3.875 1.875 3.875 1.875 5 3 C5.64142242 6.45177836 5.72563924 9.55955661 5 13 C2.69611646 15.88641446 -0.00008482 17.87957803 -3 20 C-3.66 20.66 -4.32 21.32 -5 22 C-7.6015625 22.1953125 -7.6015625 22.1953125 -10.625 22.125 C-12.12933594 22.09792969 -12.12933594 22.09792969 -13.6640625 22.0703125 C-14.43492187 22.04710937 -15.20578125 22.02390625 -16 22 C-16 21.34 -16 20.68 -16 20 C-16.66 20 -17.32 20 -18 20 C-18 15 -18 10 -18 5 C-16 7 -16 7 -16 10 C-13.03821227 11.67110042 -10.62928808 12.32682752 -7.25 12.625 C-6.45078125 12.69976562 -5.6515625 12.77453125 -4.828125 12.8515625 C-4.22484375 12.90054687 -3.6215625 12.94953125 -3 13 C-3.05220703 11.96939453 -3.05220703 11.96939453 -3.10546875 10.91796875 C-3.14607422 9.56638672 -3.14607422 9.56638672 -3.1875 8.1875 C-3.22230469 7.29417969 -3.25710938 6.40085937 -3.29296875 5.48046875 C-2.95081002 2.58352485 -2.24606427 1.77444972 0 0 Z " fill="#3B3B3B" transform="translate(270,346)"/>
<path d="M0 0 C-0.0625 3.3125 -0.0625 3.3125 -1 7 C-3.28141342 8.59040839 -5.29874113 9.16506544 -8 10 C-7.95359375 10.73605469 -7.9071875 11.47210938 -7.859375 12.23046875 C-7.56089194 20.30017153 -7.56089194 20.30017153 -10 24.1875 C-10.99 25.0846875 -10.99 25.0846875 -12 26 C-14.6645814 24.98929671 -15.95195872 24.0600516 -17.75 21.8125 C-19.7907974 17.22070585 -19.59465334 13.61877853 -17.875 8.9375 C-12.86512718 1.08869924 -9.49552442 -1.01335636 0 0 Z " fill="#F5F5F5" transform="translate(284,311)"/>
<path d="M0 0 C3.81203175 0.21783039 4.8752058 0.86272638 7.5 3.75 C8.11875 4.56017578 8.11875 4.56017578 8.75 5.38671875 C10.62342747 7.80461107 12.81256885 9.86725463 15 12 C15.804375 12.825 16.60875 13.65 17.4375 14.5 C19.9980505 17.07363115 19.9980505 17.07363115 23 19.4375 C26.07903881 22.06751232 28.45078401 24.8625034 31 28 C32.62944672 29.71002375 34.30526619 31.35368715 36 33 C35.34 34.32 34.68 35.64 34 37 C31.07706992 35.67624661 28.97170904 34.23343726 26.68432617 31.99072266 C26.06075729 31.38314117 25.43718842 30.77555969 24.79472351 30.14956665 C24.13414444 29.49435028 23.47356537 28.83913391 22.79296875 28.1640625 C22.10817947 27.4883017 21.4233902 26.81254089 20.71784973 26.11630249 C19.27540923 24.68834807 17.83574579 23.25758369 16.39868164 21.82421875 C14.19024003 19.6277252 11.96383599 17.4505715 9.73632812 15.2734375 C8.33739669 13.88396432 6.93957114 12.49337666 5.54296875 11.1015625 C4.87226852 10.45039459 4.2015683 9.79922668 3.51054382 9.12832642 C2.90273575 8.51444061 2.29492767 7.90055481 1.66870117 7.26806641 C1.12783371 6.73226959 0.58696625 6.19647278 0.02970886 5.6444397 C-1 4 -1 4 -0.66679382 1.79574585 C-0.44675186 1.20314972 -0.2267099 0.61055359 0 0 Z " fill="#EFEFEF" transform="translate(130,123)"/>
<path d="M0 0 C0.33 0.99 0.66 1.98 1 3 C-0.423125 4.3303125 -0.423125 4.3303125 -1.875 5.6875 C-5.98103079 9.851635 -7.08857425 12.98437947 -7.125 18.8125 C-7.09311538 20.20859103 -7.05472088 21.60461746 -7 23 C-8.32 22.34 -9.64 21.68 -11 21 C-11.32008414 15.7719591 -10.96800365 11.39883277 -8 7 C-5.4840828 4.46423336 -2.81309585 2.19835757 0 0 Z M-12 22 C-10.62120603 23.62925834 -9.28193928 25.29348682 -8 27 C-9.01320313 26.93039062 -10.02640625 26.86078125 -11.0703125 26.7890625 C-19.43918793 26.06268096 -19.43918793 26.06268096 -26.8125 29.1875 C-30.41246923 33.84827521 -30.51223097 40.33178748 -31 46 C-32.32 45.67 -33.64 45.34 -35 45 C-35.31945406 36.85392135 -33.39347405 32.79977504 -27.99609375 26.875 C-23.38095463 22.53983996 -18.29372407 19.56833388 -12 22 Z " fill="#0E0E0E" transform="translate(273,309)"/>
<path d="M0 0 C3.79247523 1.75592405 6.10578004 3.96459858 9 7 C9.845625 7.845625 10.69125 8.69125 11.5625 9.5625 C13.70833333 11.70833333 15.85416667 13.85416667 18 16 C16.50902342 19.7952131 14.24299151 21.61042731 11 24 C10.278125 23.2575 9.55625 22.515 8.8125 21.75 C6.09431767 18.99867822 6.09431767 18.99867822 3.25 16.8125 C1 15 1 15 0 13 C-0.07092842 10.7927077 -0.08415025 8.58332548 -0.0625 6.375 C-0.05347656 5.18648438 -0.04445313 3.99796875 -0.03515625 2.7734375 C-0.02355469 1.85820312 -0.01195312 0.94296875 0 0 Z " fill="#EBEBEB" transform="translate(312,286)"/>
<path d="M0 0 C3.04609368 2.09842009 4.696887 3.66719432 5.53125 7.3359375 C5.78436751 9.56477778 5.94627299 11.75811834 6 14 C0.65778689 16.78381148 0.65778689 16.78381148 -3 16 C-6.93635259 12.87183574 -9.24823936 9.58553883 -9.875 4.5625 C-9.91625 3.386875 -9.9575 2.21125 -10 1 C-6.57113346 -0.05503586 -3.57321156 -0.43753611 0 0 Z M-7 4 C-6 6 -6 6 -6 6 Z " fill="#050505" transform="translate(285,320)"/>
<path d="M0 0 C0.495 1.485 0.495 1.485 1 3 C-17.48 21.48 -35.96 39.96 -55 59 C-55.495 57.515 -55.495 57.515 -56 56 C-37.52 37.52 -19.04 19.04 0 0 Z " fill="#D9D9D9" transform="translate(599,420)"/>
<path d="M0 0 C-1.58780359 3.86466333 -4.05933229 6.30059155 -7.00048828 9.22753906 C-7.507966 9.73530884 -8.01544373 10.24307861 -8.53829956 10.76623535 C-10.21093869 12.43748509 -11.89054217 14.10154556 -13.5703125 15.765625 C-14.73374278 16.92532377 -15.89673126 18.08546592 -17.05929565 19.24603271 C-20.115982 22.29509352 -23.17862744 25.33809963 -26.24255371 28.37988281 C-29.36975165 31.48659913 -32.49127507 34.59900545 -35.61328125 37.7109375 C-41.7366488 43.81287417 -47.8663236 49.90842598 -54 56 C-54.99 55.67 -55.98 55.34 -57 55 C-49.86929766 47.82303867 -42.73326336 40.65142699 -35.59029579 33.48667145 C-32.2740069 30.15992755 -28.95961123 26.83134143 -25.64941406 23.49853516 C-22.45721612 20.28466998 -19.26021392 17.07565824 -16.05976486 13.87001038 C-14.83715371 12.64369244 -13.61630956 11.41561031 -12.39723587 10.18577576 C-10.69470519 8.46881152 -8.98610433 6.75812297 -7.27587891 5.04882812 C-6.51522881 4.2773922 -6.51522881 4.2773922 -5.73921204 3.4903717 C-2.22810432 0 -2.22810432 0 0 0 Z " fill="#D8D8D8" transform="translate(477,544)"/>
<path d="M0 0 C0.78375 0.04125 1.5675 0.0825 2.375 0.125 C2.375 0.785 2.375 1.445 2.375 2.125 C4.355 1.795 6.335 1.465 8.375 1.125 C8.705 1.785 9.035 2.445 9.375 3.125 C8.5396875 3.12886719 8.5396875 3.12886719 7.6875 3.1328125 C1.19940507 3.46160109 -3.19181256 5.28500242 -7.625 10.125 C-9.89879313 14.1533117 -10.91402581 18.57476522 -11.625 23.125 C-11.955 21.805 -12.285 20.485 -12.625 19.125 C-13.285 19.125 -13.945 19.125 -14.625 19.125 C-14.295 16.485 -13.965 13.845 -13.625 11.125 C-12.965 11.125 -12.305 11.125 -11.625 11.125 C-11.398125 10.196875 -11.17125 9.26875 -10.9375 8.3125 C-9.39419967 4.56448491 -8.16441962 3.89470981 -4.625 2.125 C-2.625 0.125 -2.625 0.125 0 0 Z " fill="#202020" transform="translate(343.625,224.875)"/>
<path d="M0 0 C1 1 1 1 1.375 4.875 C1.3515625 7.0546875 1.3515625 7.0546875 1 9 C-2.19565036 11.84057809 -3.6747043 12 -8 12 C-10.21695862 9.32436029 -11.03771564 7.81088621 -10.875 4.3125 C-8.9084159 -0.88490082 -4.81182356 -0.26732353 0 0 Z M-5 2 C-7.37015245 4.65484449 -7.37015245 4.65484449 -8 8 C-7.34 8 -6.68 8 -6 8 C-5.34 6.02 -4.68 4.04 -4 2 C-4.33 2 -4.66 2 -5 2 Z " fill="#050505" transform="translate(365,250)"/>
<path d="M0 0 C0 0.66 0 1.32 0 2 C-1.7015625 2.2165625 -1.7015625 2.2165625 -3.4375 2.4375 C-9.44789383 3.94009846 -13.3566415 8.17116693 -17 13 C-18.20495562 15.7519292 -18.24662392 16.91720105 -18 20 C-16.66621425 21.8354799 -16.66621425 21.8354799 -15 23 C-15 23.66 -15 24.32 -15 25 C-14.34 25.33 -13.68 25.66 -13 26 C-15.18486483 25.62329917 -16.80490291 25.12283891 -18.6875 23.9375 C-20.77509814 20.8558075 -21.09028258 17.63213766 -21 14 C-17.81634897 3.81231671 -10.37775575 -1.53114429 0 0 Z " fill="#C0C0C0" transform="translate(335,260)"/>
<path d="M0 0 C6.33333333 6.33333333 12.66666667 12.66666667 19 19 C17.35 19.66 15.7 20.32 14 21 C13.59910156 20.52691406 13.19820312 20.05382812 12.78515625 19.56640625 C8.10160893 14.11819815 3.13114726 9.02642997 -2 4 C-1.34 2.68 -0.68 1.36 0 0 Z " fill="#3F3F3F" transform="translate(166,157)"/>
<path d="M0 0 C0 0.33 0 0.66 0 1 C-1.134375 0.979375 -2.26875 0.95875 -3.4375 0.9375 C-8.81718118 1.57153385 -11.5942188 4.91852895 -15.21484375 8.67578125 C-18.48302498 12.9308531 -18.10113891 16.74077646 -18 22 C-17.34 22.33 -16.68 22.66 -16 23 C-15.375 25.5625 -15.375 25.5625 -15 28 C-17.35739129 26.3498261 -18.55790275 25.43196889 -20 23 C-20.96934111 16.18637901 -20.50403065 10.15236738 -16.9140625 4.19921875 C-12.19930643 -1.32990428 -6.83341416 -0.59709444 0 0 Z " fill="#C5C5C5" transform="translate(262,335)"/>
<path d="M0 0 C1.71600606 1.43907136 3.41964463 2.88944695 5.109375 4.359375 C6.70048187 5.74008757 8.31630029 7.09224918 9.9375 8.4375 C12.61291174 11.76149641 12.40747333 13.84377202 12 18 C11.01 17.34 10.02 16.68 9 16 C9 15.34 9 14.68 9 14 C8.443125 13.79375 7.88625 13.5875 7.3125 13.375 C4.01442752 11.41398393 2.17668673 9.14410306 0 6 C-0.3125 2.625 -0.3125 2.625 0 0 Z " fill="#F0F0F0" transform="translate(588,168)"/>
<path d="M0 0 C0 0.33 0 0.66 0 1 C-0.99 1.165 -1.98 1.33 -3 1.5 C-8.24335275 2.95529791 -11.56047461 6.97323857 -15 11 C-16.26237731 13.52475462 -16.09856404 15.31200466 -16.0625 18.125 C-16.04896484 19.49011719 -16.04896484 19.49011719 -16.03515625 20.8828125 C-16.02355469 21.58148438 -16.01195312 22.28015625 -16 23 C-18 22 -18 22 -19 19 C-19.51741718 12.1442224 -17.75404848 7.846434 -13.4375 2.625 C-9.54208552 -1.16193458 -5.1049675 -0.5447989 0 0 Z " fill="#D2D2D2" transform="translate(284,311)"/>
<path d="M0 0 C0.66 0.66 1.32 1.32 2 2 C1.67028521 5.29714793 1.3773161 6.6226839 -1 9 C-3.4375 9.375 -3.4375 9.375 -6 9 C-7.875 7.25 -7.875 7.25 -9 5 C-8.9375 2.875 -8.9375 2.875 -8 1 C-5.11502159 -1.0891223 -3.29414706 -1.31765882 0 0 Z M-5 3 C-4.67 3.99 -4.34 4.98 -4 6 C-3.34 5.67 -2.68 5.34 -2 5 C-2 4.34 -2 3.68 -2 3 C-2.99 3 -3.98 3 -5 3 Z " fill="#070707" transform="translate(350,238)"/>
<path d="M0 0 C0.99 0.33 1.98 0.66 3 1 C2.44982783 4.98874822 0.51312134 6.98075809 -2.25 9.8125 C-3.01828125 10.62332031 -3.7865625 11.43414062 -4.578125 12.26953125 C-7 14 -7 14 -9.796875 13.76171875 C-10.52390625 13.51035156 -11.2509375 13.25898438 -12 13 C-4.94975689 4.63371151 -4.94975689 4.63371151 -2 2 C-1.34 2 -0.68 2 0 2 C0 1.34 0 0.68 0 0 Z " fill="#3A3A3A" transform="translate(473,130)"/>
<path d="M0 0 C1.65 0.33 3.3 0.66 5 1 C5.31732684 4.4905952 5.46521283 6.35585916 3.375 9.25 C0.68571411 11.23157908 -1.84283404 11.97048936 -5 13 C-5.99 14.485 -5.99 14.485 -7 16 C-4.03 16.33 -1.06 16.66 2 17 C2 17.33 2 17.66 2 18 C-1.63 18 -5.26 18 -9 18 C-9.33 16.68 -9.66 15.36 -10 14 C-7.65357218 11.10147152 -5.79859327 9.31572292 -2.3125 7.9375 C0.16723474 7.19743689 0.16723474 7.19743689 1.3125 4.875 C1.539375 4.25625 1.76625 3.6375 2 3 C0.35 3.33 -1.3 3.66 -3 4 C-2.01 2.68 -1.02 1.36 0 0 Z " fill="#D0D0D0" transform="translate(337,277)"/>
<path d="M0 0 C3.66666667 3.66666667 7.33333333 7.33333333 11 11 C10.67 11.99 10.34 12.98 10 14 C5.72436721 13.52492969 3.83439503 11.04697466 1 8 C0.236875 7.236875 -0.52625 6.47375 -1.3125 5.6875 C-1.869375 5.130625 -2.42625 4.57375 -3 4 C-2.34 4 -1.68 4 -1 4 C-0.67 2.68 -0.34 1.36 0 0 Z " fill="#3A3A3A" transform="translate(52,459)"/>
<path d="M0 0 C0.66 0.33 1.32 0.66 2 1 C0.84826645 3.46800047 -0.04783565 5.04783565 -2 7 C-2.61875 7.12375 -3.2375 7.2475 -3.875 7.375 C-6.7157757 8.21052226 -8.04507731 9.83562131 -10 12 C-9.67 10.68 -9.34 9.36 -9 8 C-10.65 8.33 -12.3 8.66 -14 9 C-14 8.01 -14 7.02 -14 6 C-12.80375 5.566875 -11.6075 5.13375 -10.375 4.6875 C-7.6498304 3.67764105 -5.22060227 2.59586784 -2.625 1.25 C-1.75875 0.8375 -0.8925 0.425 0 0 Z " fill="#121212" transform="translate(338,279)"/>
<path d="M0 0 C1.98 1.65 3.96 3.3 6 5 C4.02 7.31 2.04 9.62 0 12 C-0.99 11.67 -1.98 11.34 -3 11 C-2.69217504 9.35328588 -2.37860766 7.70764424 -2.0625 6.0625 C-1.88847656 5.14597656 -1.71445312 4.22945313 -1.53515625 3.28515625 C-1 1 -1 1 0 0 Z " fill="#E2E2E2" transform="translate(310,312)"/>
<path d="M0 0 C-3 2 -3 2 -5.3125 3.25 C-12.5486092 7.96188506 -15.10353887 12.58237427 -17 21 C-17.33 21 -17.66 21 -18 21 C-17.74851847 14.63751727 -17.379138 9.95534037 -13 5 C-8.85100907 1.20347189 -5.82995991 -0.71097072 0 0 Z " fill="#D1D1D1" transform="translate(350,228)"/>
<path d="M0 0 C1.9375 0.375 1.9375 0.375 4 1 C4.33 1.66 4.66 2.32 5 3 C3.35 3.33 1.7 3.66 0 4 C-0.40694193 7.8303084 -0.40694193 7.8303084 1.3125 9.703125 C1.869375 10.21359375 2.42625 10.7240625 3 11.25 C3.556875 11.77078125 4.11375 12.2915625 4.6875 12.828125 C5.120625 13.21484375 5.55375 13.6015625 6 14 C5.67 14.99 5.34 15.98 5 17 C3.33333333 15.33333333 1.66666667 13.66666667 0 12 C-0.78375 11.319375 -1.5675 10.63875 -2.375 9.9375 C-4 8 -4 8 -3.9375 6 C-2.87829148 3.74035515 -1.58142486 1.92521287 0 0 Z " fill="#DDDDDD" transform="translate(223,348)"/>
<path d="M0 0 C0.94875 0.04125 1.8975 0.0825 2.875 0.125 C2.875 0.785 2.875 1.445 2.875 2.125 C3.535 2.455 4.195 2.785 4.875 3.125 C1.2071148 5.08689209 -1.99748551 6.51801257 -6.125 7.125 C-5.03177966 0.20127119 -5.03177966 0.20127119 0 0 Z " fill="#2A2A2A" transform="translate(330.125,268.875)"/>
<path d="M0 0 C1.32 1.32 2.64 2.64 4 4 C1.03 6.475 1.03 6.475 -2 9 C-3.32 8.34 -4.64 7.68 -6 7 C-4.02 4.69 -2.04 2.38 0 0 Z " fill="#393939" transform="translate(387,216)"/>
<path d="M0 0 C3.3 0 6.6 0 10 0 C10.33 4.62 10.66 9.24 11 14 C9 13 9 13 8.375 11.375 C7.87904355 8.2339425 7.93896189 5.17398169 8 2 C5.69 2 3.38 2 1 2 C0.67 1.34 0.34 0.68 0 0 Z " fill="#CCCCCC" transform="translate(337,253)"/>
<path d="M0 0 C-0.99 1.485 -0.99 1.485 -2 3 C-2.33 2.67 -2.66 2.34 -3 2 C-8.70320894 1.44086187 -11.50812136 2.4941435 -16 6 C-15.13166723 3.00030496 -14.57799424 1.3853295 -11.9375 -0.375 C-7.82265776 -1.25049835 -4.12048727 -0.66430514 0 0 Z " fill="#292929" transform="translate(313,285)"/>
<path d="M0 0 C1.65 0.33 3.3 0.66 5 1 C5.1875 3.875 5.1875 3.875 5 7 C4.01 7.66 3.02 8.32 2 9 C1.01 8.67 0.02 8.34 -1 8 C-0.01 7.01 0.98 6.02 2 5 C1.67 4.34 1.34 3.68 1 3 C-0.32 3.33 -1.64 3.66 -3 4 C-2.01 2.68 -1.02 1.36 0 0 Z " fill="#9D9D9D" transform="translate(337,277)"/>
<path d="M0 0 C-0.33 1.32 -0.66 2.64 -1 4 C-2.32 4 -3.64 4 -5 4 C-6.66342837 5.66342837 -6.36048097 7.7825709 -6.5625 10.0625 C-6.68818359 11.44115234 -6.68818359 11.44115234 -6.81640625 12.84765625 C-6.87699219 13.55792969 -6.93757813 14.26820313 -7 15 C-8.32 14.67 -9.64 14.34 -11 14 C-10.34 13.67 -9.68 13.34 -9 13 C-8.68437447 11.00391573 -8.68437447 11.00391573 -8.625 8.6875 C-8.32727029 5.4072499 -8.13947464 4.19718828 -6.1875 1.4375 C-4 0 -4 0 0 0 Z " fill="#1A1A1A" transform="translate(274,344)"/>
<path d="M0 0 C0 2.97 0 5.94 0 9 C-1.32 8.67 -2.64 8.34 -4 8 C-4.1875 5.125 -4.1875 5.125 -4 2 C-1 0 -1 0 0 0 Z " fill="#232323" transform="translate(242,346)"/>
<path d="M0 0 C0.99 0.66 1.98 1.32 3 2 C3 2.99 3 3.98 3 5 C6.465 4.505 6.465 4.505 10 4 C9.67 4.66 9.34 5.32 9 6 C7.906875 6.28875 6.81375 6.5775 5.6875 6.875 C1.91945678 8.02457251 0.47322318 9.03213219 -2 12 C-2.66 11.67 -3.32 11.34 -4 11 C-3.154375 10.29875 -2.30875 9.5975 -1.4375 8.875 C1.39309751 6.20542015 1.39309751 6.20542015 0.8125 2.6875 C0.544375 1.800625 0.27625 0.91375 0 0 Z " fill="#484848" transform="translate(354,257)"/>
<path d="M0 0 C3.06382739 0.32432407 3.98970965 0.98901487 6.140625 3.28515625 C7.18476562 4.65994141 7.18476562 4.65994141 8.25 6.0625 C8.95640625 6.98160156 9.6628125 7.90070313 10.390625 8.84765625 C10.92171875 9.55792969 11.4528125 10.26820313 12 11 C11.67 11.66 11.34 12.32 11 13 C10.443125 12.2575 9.88625 11.515 9.3125 10.75 C7.11279004 7.94413927 7.11279004 7.94413927 4.375 5.9375 C2.04500608 4.03671549 1.0833268 2.75755913 0 0 Z " fill="#CFCFCF" transform="translate(541,126)"/>
<path d="M0 0 C-1.65 1.98 -3.3 3.96 -5 6 C-5.33 5.01 -5.66 4.02 -6 3 C-5.67 2.67 -5.34 2.34 -5 2 C-6.65 2.33 -8.3 2.66 -10 3 C-10 2.01 -10 1.02 -10 0 C-6.30581799 -1.231394 -3.7943739 -0.64432764 0 0 Z " fill="#5C5C5C" transform="translate(334,285)"/>
<path d="M0 0 C1.33998047 0.06960938 1.33998047 0.06960938 2.70703125 0.140625 C3.60808594 0.17671875 4.50914062 0.2128125 5.4375 0.25 C6.46810547 0.31960938 6.46810547 0.31960938 7.51953125 0.390625 C7.51953125 1.050625 7.51953125 1.710625 7.51953125 2.390625 C6.61460937 2.48150391 6.61460937 2.48150391 5.69140625 2.57421875 C4.49257813 2.69990234 4.49257813 2.69990234 3.26953125 2.828125 C2.480625 2.90933594 1.69171875 2.99054688 0.87890625 3.07421875 C-1.30411514 3.36697493 -3.35778695 3.81126919 -5.48046875 4.390625 C-3.17521711 0.50003419 -3.17521711 0.50003419 0 0 Z " fill="#8F8F8F" transform="translate(327.48046875,259.609375)"/>
<path d="M0 0 C2.31 0.33 4.62 0.66 7 1 C6.67 1.99 6.34 2.98 6 4 C5.2575 3.79375 4.515 3.5875 3.75 3.375 C0.67669159 2.95591249 -0.42786866 3.38050989 -3 5 C-3.33 4.34 -3.66 3.68 -4 3 C-2.68 2.67 -1.36 2.34 0 2 C0 1.34 0 0.68 0 0 Z " fill="#232323" transform="translate(290,295)"/>
<path d="M0 0 C0.12375 0.598125 0.2475 1.19625 0.375 1.8125 C0.95475985 4.26231348 0.95475985 4.26231348 3 7 C5.56282742 7.72965366 5.56282742 7.72965366 8 8 C8 8.33 8 8.66 8 9 C1.84765625 9.09765625 1.84765625 9.09765625 0 9 C-1 8 -1 8 -1.125 4.5 C-1 1 -1 1 0 0 Z " fill="#B9B9B9" transform="translate(341,239)"/>
<path d="M0 0 C0.99 0.33 1.98 0.66 3 1 C1.63875 2.11375 1.63875 2.11375 0.25 3.25 C-2.3069423 5.37674584 -4.69110193 7.60229816 -7 10 C-6.42424336 6.64749299 -5.40693737 5.06181371 -2.9375 2.75 C-2.38964844 2.22921875 -1.84179688 1.7084375 -1.27734375 1.171875 C-0.64505859 0.59179688 -0.64505859 0.59179688 0 0 Z " fill="#A5A5A5" transform="translate(274,311)"/>
<path d="M0 0 C0.99 0.33 1.98 0.66 3 1 C-1.75 5.875 -1.75 5.875 -4 7 C-3.6875 4.625 -3.6875 4.625 -3 2 C-2.01 1.34 -1.02 0.68 0 0 Z " fill="#0E0E0E" transform="translate(358,250)"/>
<path d="M0 0 C3.35595828 0.59927826 5.37801226 1.84622436 8 4 C7.01 4.66 6.02 5.32 5 6 C3.31237149 4.3545622 1.6459651 2.68711423 0 1 C0 0.67 0 0.34 0 0 Z " fill="#C6C6C6" transform="translate(243,379)"/>
<path d="M0 0 C3.26954202 0.56371414 4.82575883 1.49962266 7 4 C6.67 4.99 6.34 5.98 6 7 C1.125 2.25 1.125 2.25 0 0 Z " fill="#D3D3D3" transform="translate(236,372)"/>
<path d="M0 0 C3.26954202 0.56371414 4.82575883 1.49962266 7 4 C6.67 4.99 6.34 5.98 6 7 C1.125 2.25 1.125 2.25 0 0 Z " fill="#D3D3D3" transform="translate(229,365)"/>
<path d="M0 0 C0.556875 0.268125 1.11375 0.53625 1.6875 0.8125 C0.6975 0.8125 -0.2925 0.8125 -1.3125 0.8125 C-1.7146875 1.67875 -1.7146875 1.67875 -2.125 2.5625 C-3.32969859 4.8450868 -4.72048115 6.7862942 -6.3125 8.8125 C-7.125 7.125 -7.125 7.125 -7.3125 4.8125 C-3.35769774 -0.27224576 -3.35769774 -0.27224576 0 0 Z " fill="#6A6A6A" transform="translate(224.3125,347.1875)"/>
<path d="M0 0 C-0.763125 0.5775 -1.52625 1.155 -2.3125 1.75 C-4.66200917 3.71703093 -6.29323505 5.48476744 -8 8 C-8.36075949 3.55063291 -8.36075949 3.55063291 -6.8125 1.1875 C-4.44017475 -0.36678206 -2.77958655 -0.22537188 0 0 Z " fill="#858585" transform="translate(258,343)"/>
<path d="M0 0 C3.79588866 0.54226981 5.47211993 2.20127563 8 5 C7.67 5.99 7.34 6.98 7 8 C5.76302083 6.50260417 4.52604167 5.00520833 3.2890625 3.5078125 C2.24749008 2.28948839 1.13339903 1.13339903 0 0 Z " fill="#444444" transform="translate(542,125)"/>
<path d="M0 0 C1.65 1.32 3.3 2.64 5 4 C4.67 4.99 4.34 5.98 4 7 C2 5.1875 2 5.1875 0 3 C0 2.01 0 1.02 0 0 Z " fill="#D2D2D2" transform="translate(224,358)"/>
<path d="M0 0 C-0.804375 0.61875 -1.60875 1.2375 -2.4375 1.875 C-5.03874519 3.74164041 -5.03874519 3.74164041 -6 6 C-6.66 5.67 -7.32 5.34 -8 5 C-7.75 3.125 -7.75 3.125 -7 1 C-4.09342573 -1.03460199 -3.47133392 -1.15711131 0 0 Z " fill="#2E2E2E" transform="translate(349,238)"/>
</svg>
