<?xml version="1.0" encoding="UTF-8"?>
<svg version="1.1" xmlns="http://www.w3.org/2000/svg" width="512" height="512">
<path d="M0 0 C0.92768692 -0.01253311 1.85537384 -0.02506622 2.81117249 -0.03797913 C4.29574196 -0.01809181 4.29574196 -0.01809181 5.81030273 0.00219727 C6.83695541 -0.00021469 7.86360809 -0.00262665 8.92137146 -0.00511169 C11.08743155 -0.0041339 13.25351683 0.00924341 15.41943359 0.03417969 C18.73613209 0.06852312 22.0501712 0.05482548 25.36694336 0.03540039 C27.4730745 0.04229793 29.57919876 0.05196947 31.68530273 0.06469727 C32.67703995 0.0597374 33.66877716 0.05477753 34.69056702 0.04966736 C41.51872123 0.16662665 41.51872123 0.16662665 44.77880859 2.45166016 C46.78056458 5.5621346 47.1168108 7.9497193 47.18139648 11.63110352 C45.83577249 14.57866083 45.09585104 16.17387624 42.18139648 17.63110352 C29.97139648 17.96110352 17.76139648 18.29110352 5.18139648 18.63110352 C-13.95860352 56.91110352 -33.09860352 95.19110352 -52.81860352 134.63110352 C-39.61860352 134.63110352 -26.41860352 134.63110352 -12.81860352 134.63110352 C-6.91548393 140.5342231 -6.91548393 140.5342231 -6.5456543 144.72143555 C-6.876297 149.45749301 -8.26390547 152.89422956 -10.18579102 157.18579102 C-10.71193245 158.40288254 -10.71193245 158.40288254 -11.248703 159.64456177 C-12.38594396 162.27004223 -13.5398655 164.88783678 -14.69360352 167.50610352 C-16.25745216 171.10539693 -17.81286238 174.70832458 -19.36938477 178.31079102 C-19.7540239 179.19748474 -20.13866302 180.08417847 -20.53495789 180.9977417 C-23.78035547 188.49261333 -26.87588937 196.03676932 -29.88110352 203.63110352 C-30.29150879 204.66734863 -30.70191406 205.70359375 -31.12475586 206.77124023 C-32.02660101 209.05636667 -32.92511626 211.34269925 -33.81860352 213.63110352 C-33.30813477 212.99946289 -32.79766602 212.36782227 -32.27172852 211.71704102 C-26.90573154 205.11420076 -21.41728759 198.63172837 -15.86938477 192.18188477 C-9.62433031 184.92079348 -3.42229202 177.62556923 2.61889648 170.19360352 C7.03052703 164.77539773 11.57463291 159.47839501 16.13061523 154.18188477 C22.37566969 146.92079348 28.57770798 139.62556923 34.61889648 132.19360352 C38.69275064 127.1841626 42.88231743 122.28147307 47.10888672 117.40087891 C47.59429932 116.83876709 48.07971191 116.27665527 48.57983398 115.69750977 C49.0095752 115.2019458 49.43931641 114.70638184 49.88208008 114.19580078 C51.38279946 112.38856469 52.78477547 110.51952481 54.18139648 108.63110352 C52.97080566 108.62699463 51.76021484 108.62288574 50.51293945 108.61865234 C46.00616323 108.59682207 41.50025523 108.54249199 36.99389648 108.47851562 C35.04639021 108.45536956 33.09875937 108.44094788 31.15112305 108.43554688 C28.34532346 108.42623242 25.54147395 108.38518845 22.73608398 108.33813477 C21.87022675 108.34206741 21.00436951 108.34600006 20.11227417 108.35005188 C15.93608433 108.25005976 13.02372347 107.95765225 9.65673828 105.35571289 C6.60394313 101.99550045 6.11167383 100.34945018 5.9152832 95.96459961 C6.39158276 91.7880206 8.40442565 88.85347962 10.74389648 85.44360352 C11.23913818 84.67951172 11.73437988 83.91541992 12.24462891 83.12817383 C13.31508927 81.47866085 14.3952814 79.83543059 15.48413086 78.19799805 C17.79222684 74.70730168 20.02128048 71.16871509 22.25537109 67.63037109 C24.00944087 64.85652195 25.77544541 62.0906149 27.54467773 59.32641602 C30.03448073 55.43361274 32.50970179 51.53205857 34.97436523 47.62329102 C35.90575317 46.14940918 35.90575317 46.14940918 36.85595703 44.64575195 C38.03572119 42.77819966 39.21313357 40.90915871 40.38769531 39.03833008 C49.86161788 24.07102972 49.86161788 24.07102972 54.74389648 22.44360352 C58.54629191 22.6510069 60.22986602 23.26987914 63.18139648 25.63110352 C65.11403048 28.53005451 65.76543093 30.06115597 65.65014648 33.50708008 C64.57918223 38.35988684 61.38239002 42.41759959 58.68139648 46.50610352 C58.01591797 47.540979 57.35043945 48.57585449 56.66479492 49.64208984 C54.88423789 52.40785242 53.0907834 55.16474236 51.29345703 57.9196167 C49.42254748 60.79898963 47.57527157 63.69338783 45.72827148 66.58813477 C42.41383519 71.78218006 39.08816277 76.96885081 35.75268555 82.14941406 C34.18820417 84.62035147 32.6755403 87.11712492 31.18139648 89.63110352 C31.73405685 89.62222107 32.28671722 89.61333862 32.85612488 89.60418701 C38.61491541 89.51560445 44.37351199 89.45532431 50.1328125 89.41137695 C52.28132999 89.39127766 54.42979288 89.36399359 56.578125 89.3293457 C59.66867554 89.28075439 62.75850203 89.25811772 65.84936523 89.24047852 C66.80787888 89.21983337 67.76639252 89.19918823 68.75395203 89.17791748 C73.09316766 89.17646173 75.50122425 89.21208855 79.26464844 91.53051758 C82.24966572 94.80183189 82.83538754 97.54889307 82.77124023 102.01782227 C81.50949971 107.60791771 76.94331545 111.51428654 73.18139648 115.63110352 C71.37089417 117.740362 69.5909308 119.87486879 67.80639648 122.00610352 C66.87508744 123.10589469 65.94278718 124.20484723 65.00952148 125.30297852 C64.54352539 125.85147461 64.0775293 126.3999707 63.59741211 126.96508789 C62.65340169 128.07576497 61.70939128 129.18644206 60.76538086 130.29711914 C56.04620038 135.85178385 51.34064599 141.41170277 46.74389648 147.06860352 C42.33226594 152.4868093 37.78816006 157.78381202 33.23217773 163.08032227 C26.98712328 170.34141355 20.78508499 177.6366378 14.74389648 185.06860352 C10.33226594 190.4868093 5.78816006 195.78381202 1.23217773 201.08032227 C-5.01287672 208.34141355 -11.21491501 215.6366378 -17.25610352 223.06860352 C-21.66773406 228.4868093 -26.21183994 233.78381202 -30.76782227 239.08032227 C-33.69359639 242.48210412 -36.60528303 245.89552281 -39.50610352 249.31860352 C-40.18080688 250.11379395 -40.18080688 250.11379395 -40.86914062 250.92504883 C-43.06437049 253.52141105 -45.2350272 256.13359522 -47.36547852 258.78344727 C-48.15438477 259.76442383 -48.94329102 260.74540039 -49.75610352 261.75610352 C-50.79057617 263.0593457 -50.79057617 263.0593457 -51.84594727 264.38891602 C-54.31758843 267.19826657 -56.25463588 269.32054822 -60.00219727 270.06469727 C-64.09214862 270.07178557 -66.26479646 269.97723293 -69.81860352 267.75610352 C-72.85591883 264.528956 -73.13288942 262.32401952 -73.06655884 257.89901733 C-72.6208799 253.82263203 -70.98206065 250.30819203 -69.33032227 246.58813477 C-68.77470863 245.28919785 -68.77470863 245.28919785 -68.20787048 243.96401978 C-66.98710134 241.11801215 -65.74659959 238.28106107 -64.50610352 235.44360352 C-63.64895708 233.45410252 -62.79334909 231.46393807 -61.93920898 229.47314453 C-60.15248751 225.31195114 -58.35907611 221.15373407 -56.5612793 216.99731445 C-52.54165755 207.68764554 -48.61085471 198.34052254 -44.67617798 188.99472046 C-43.46986897 186.13095739 -42.26128431 183.26816718 -41.05175781 180.40576172 C-37.2846241 171.49025369 -33.52583238 162.5717305 -29.81860352 153.63110352 C-31.45273193 153.60922974 -31.45273193 153.60922974 -33.11987305 153.58691406 C-37.17928137 153.52874279 -41.23814589 153.4515117 -45.29711914 153.36865234 C-47.05060978 153.33549131 -48.8042049 153.30743209 -50.55786133 153.28466797 C-53.0853305 153.25095882 -55.61184989 153.19863659 -58.13891602 153.14282227 C-58.91727814 153.13643234 -59.69564026 153.13004242 -60.49758911 153.12345886 C-66.14136987 152.9725583 -70.4309254 151.85960309 -74.69360352 147.88110352 C-76.26900667 144.7302972 -76.34620698 142.04765731 -75.81860352 138.63110352 C-74.5345015 135.05492858 -72.84188646 131.71361161 -71.12670898 128.3269043 C-70.63253416 127.32379778 -70.13835934 126.32069126 -69.62920952 125.28718758 C-68.57381632 123.14898915 -67.51220924 121.01384836 -66.44490814 118.88156891 C-64.86132067 115.7164815 -63.29519456 112.54339968 -61.73468018 109.36688232 C-58.47216171 102.73433259 -55.18319012 96.11511535 -51.88891602 89.49829102 C-51.59560819 88.90902659 -51.30230037 88.31976216 -51.00010443 87.71264124 C-48.22240552 82.13223938 -45.44346526 76.55245786 -42.66089058 70.9744854 C-39.14285024 63.92205403 -35.63177549 56.86624779 -32.12976849 49.80584037 C-29.63968558 44.78697224 -27.14194391 39.77196249 -24.63848484 34.75975335 C-23.15294493 31.7850379 -21.67176494 28.80828651 -20.19681168 25.82830429 C-18.56071268 22.5245797 -16.91218783 19.22734776 -15.26049805 15.93139648 C-14.7814653 14.95692566 -14.30243256 13.98245483 -13.80888367 12.97845459 C-7.26396691 0.00860601 -7.26396691 0.00860601 0 0 Z " fill="#000000" transform="translate(252.818603515625,125.368896484375)"/>
</svg>
